<svg data-v-423bf9ae="" xmlns="http://www.w3.org/2000/svg" viewBox="0 0 424.6676070767488 60" class="font"><!----><!----><!----><g data-v-423bf9ae="" id="b1ac91a4-d820-4f3a-8bfe-f14c2f04b48d" fill="black" transform="matrix(4.243281364440918,0,0,4.243281364440918,0.7637898325920105,2.49951881414745e-8)"><path d="M14.14 1.86L11.93 1.86L11.93 2.17L12.96 2.52L10.35 9.24L7.39 1.86L5.25 1.86L5.25 2.17L6.30 2.52L3.60 9.24L0.73 1.86L-0.18 1.86L3.19 10.26L4.02 10.26L6.97 2.90L9.94 10.26L10.77 10.26ZM20.54 7C20.54 4.79 19.38 3.58 17.60 3.58C15.82 3.58 14.62 4.79 14.62 7C14.62 9.28 15.96 10.40 18.06 10.40C18.65 10.40 19.49 10.26 20.02 10.08L20.02 9.38C19.49 9.56 18.65 9.70 18.06 9.70C16.51 9.70 15.50 8.96 15.41 7.22L20.54 7.22C20.54 7.15 20.54 7.07 20.54 7ZM19.77 6.55L15.43 6.55C15.57 5.07 16.39 4.28 17.60 4.28C18.73 4.28 19.63 5.07 19.77 6.55ZM27.82 7C27.82 4.79 26.61 3.58 24.84 3.58C24.35 3.58 23.73 3.67 23.27 3.82L23.27 0L22.50 0L22.50 10.02C23.17 10.22 24.12 10.40 24.84 10.40C26.61 10.40 27.82 9.20 27.82 7ZM27.03 7C27.03 8.76 26.15 9.70 24.84 9.70C24.32 9.70 23.79 9.62 23.27 9.48L23.27 4.51C23.79 4.37 24.32 4.28 24.84 4.28C26.15 4.28 27.03 5.22 27.03 7ZM34.03 8.48C34.03 7.28 33.14 6.57 31.60 6.57C30.48 6.57 30.02 6.10 30.02 5.39C30.02 4.86 30.44 4.28 31.84 4.28C32.33 4.28 32.80 4.35 33.25 4.47L33.59 5.46L33.89 5.46L33.89 3.95C33.28 3.75 32.56 3.58 31.84 3.58C29.96 3.58 29.22 4.48 29.22 5.42C29.22 6.58 30.11 7.31 31.60 7.31C32.77 7.31 33.24 7.77 33.24 8.51C33.24 9.11 32.80 9.70 31.32 9.70C30.59 9.70 29.92 9.58 29.18 9.32L29.18 10.02C29.92 10.28 30.59 10.40 31.32 10.40C33.28 10.40 34.03 9.52 34.03 8.48ZM36.99 1.40C36.99 1.04 36.69 0.73 36.33 0.73C35.97 0.73 35.66 1.04 35.66 1.40C35.66 1.76 35.97 2.06 36.33 2.06C36.69 2.06 36.99 1.76 36.99 1.40ZM37.76 10.26L37.76 9.95L36.71 9.60L36.71 3.72L35.94 3.72L35.94 10.26ZM42.81 10.29L42.81 9.59C42.62 9.66 42.31 9.70 42.11 9.70C40.99 9.70 40.61 9.24 40.61 8.26L40.61 4.41L42.81 4.41L42.81 3.72L40.61 3.72L40.61 1.82L39.84 1.93L39.84 3.72L38.44 3.72L38.44 4.41L39.84 4.41L39.84 8.26C39.84 9.63 40.57 10.40 42.11 10.40C42.31 10.40 42.62 10.36 42.81 10.29ZM49.87 7C49.87 4.79 48.71 3.58 46.93 3.58C45.15 3.58 43.95 4.79 43.95 7C43.95 9.28 45.29 10.40 47.39 10.40C47.98 10.40 48.82 10.26 49.35 10.08L49.35 9.38C48.82 9.56 47.98 9.70 47.39 9.70C45.84 9.70 44.83 8.96 44.74 7.22L49.87 7.22C49.87 7.15 49.87 7.07 49.87 7ZM49.10 6.55L44.76 6.55C44.90 5.07 45.72 4.28 46.93 4.28C48.06 4.28 48.96 5.07 49.10 6.55ZM59.78 10.26L58.94 1.86L58.23 1.86L55.55 5.56L52.86 1.86L51.91 1.86L52.08 2.66L51.32 10.26L52.09 10.26L52.79 2.97L55.31 6.47L55.78 6.47L58.30 2.97L59.00 10.26ZM67.41 10.26L67.41 9.56C67.21 9.63 66.99 9.70 66.75 9.70C66.43 9.70 66.29 9.52 66.29 9.23L66.29 5.96C66.29 4.41 65.35 3.58 63.67 3.58C63.17 3.58 62.48 3.71 61.89 3.89L61.89 5.46L62.20 5.46L62.55 4.42C62.94 4.34 63.35 4.28 63.67 4.28C64.93 4.28 65.52 4.82 65.52 5.96L65.52 6.55L63.50 6.55C61.95 6.55 61.22 7.32 61.22 8.34C61.22 9.53 62.16 10.40 63.95 10.40C64.60 10.40 65.23 10.26 65.76 10.04C65.94 10.28 66.26 10.40 66.54 10.40C66.86 10.40 67.17 10.33 67.41 10.26ZM65.52 9.41C65.06 9.59 64.53 9.72 63.95 9.72C62.65 9.72 62.01 9.18 62.01 8.34C62.01 7.67 62.44 7.22 63.50 7.22L65.52 7.22ZM74.49 7C74.49 4.79 73.29 3.58 71.51 3.58C70.80 3.58 69.83 3.78 69.12 3.98L68.92 4.03L69.17 4.80L69.17 14L69.94 14L69.94 10.16C70.41 10.32 71.02 10.40 71.51 10.40C73.29 10.40 74.49 9.20 74.49 7ZM73.71 7C73.71 8.76 72.83 9.70 71.51 9.70C70.99 9.70 70.46 9.62 69.94 9.48L69.94 4.51C70.46 4.37 70.99 4.28 71.51 4.28C72.83 4.28 73.71 5.22 73.71 7ZM81.77 7C81.77 4.79 80.57 3.58 78.79 3.58C78.08 3.58 77.11 3.78 76.40 3.98L76.20 4.03L76.45 4.80L76.45 14L77.22 14L77.22 10.16C77.69 10.32 78.30 10.40 78.79 10.40C80.57 10.40 81.77 9.20 81.77 7ZM80.99 7C80.99 8.76 80.11 9.70 78.79 9.70C78.27 9.70 77.74 9.62 77.22 9.48L77.22 4.51C77.74 4.37 78.27 4.28 78.79 4.28C80.11 4.28 80.99 5.22 80.99 7ZM84.78 1.40C84.78 1.04 84.49 0.73 84.13 0.73C83.76 0.73 83.45 1.04 83.45 1.40C83.45 1.76 83.76 2.06 84.13 2.06C84.49 2.06 84.78 1.76 84.78 1.40ZM85.55 10.26L85.55 9.95L84.50 9.60L84.50 3.72L83.73 3.72L83.73 10.26ZM93.21 10.26L93.21 9.95L92.18 9.60L92.18 5.96C92.18 4.41 91.24 3.58 89.56 3.58C88.84 3.58 87.88 3.78 87.16 3.98L86.97 4.03L87.22 4.80L87.22 10.26L87.99 10.26L87.99 4.51C88.51 4.37 89.04 4.28 89.56 4.28C90.82 4.28 91.41 4.82 91.41 5.96L91.41 10.26ZM99.90 4.03L99.71 3.98C99.04 3.79 97.78 3.58 96.95 3.58C95.24 3.58 94.25 4.68 94.25 5.88C94.25 6.99 95.10 8.01 96.60 8.15C96.38 8.29 96.21 8.57 96.21 8.86C96.21 9.16 96.38 9.44 96.60 9.58C95.10 9.72 94.25 10.74 94.25 11.84C94.25 13.05 95.24 14.14 96.95 14.14C98.66 14.14 99.65 13.05 99.65 11.84C99.65 10.89 99.01 10.00 97.87 9.69C97.20 9.51 96.96 9.24 96.96 8.86C96.96 8.48 97.20 8.22 97.87 8.04C99.01 7.73 99.65 6.83 99.65 5.88L99.65 4.80ZM98.90 5.88C98.90 6.76 98.18 7.46 96.95 7.46C95.72 7.46 95.02 6.78 95.00 5.88C95.00 4.98 95.72 4.28 96.95 4.28C97.61 4.28 98.41 4.40 98.90 4.51ZM98.90 11.84C98.90 12.74 98.18 13.44 96.95 13.44C95.72 13.44 95.02 12.75 95.00 11.84C95.00 10.96 95.72 10.26 96.95 10.26C98.18 10.26 98.88 10.95 98.90 11.84Z"></path></g><!----><!----></svg>