<svg data-v-fde0c5aa="" xmlns="http://www.w3.org/2000/svg" viewBox="0 0 300 300" class="font"><!----><defs data-v-fde0c5aa=""><!----></defs><rect data-v-fde0c5aa="" fill="transparent" x="0" y="0" width="300px" height="300px" class="logo-background-square"></rect><defs data-v-fde0c5aa=""><linearGradient data-v-fde0c5aa="" gradientTransform="rotate(25)" id="4bdeecef-d72b-4c80-b981-98cd3bc6cd72" x1="0%" y1="0%" x2="100%" y2="0%"><stop data-v-fde0c5aa="" offset="0%" stop-color="#3B3B3B" stop-opacity="1"></stop><stop data-v-fde0c5aa="" offset="100%" stop-color="#2A13BD" stop-opacity="1"></stop></linearGradient></defs><g data-v-fde0c5aa="" id="24ca6544-9fb4-4bc4-a559-074cb1ec3bf2" fill="url(#4bdeecef-d72b-4c80-b981-98cd3bc6cd72)" transform="matrix(2.3123817443847656,0,0,2.3123817443847656,39.81500946269164,133.466471016643)"><path d="M9.34 9.60L11.49 1.75L10.69 1.60L10.69 1.24L12.00 1.27L13.25 1.24L13.25 1.60L12.46 1.75L11.03 6.22L9.70 10.68L8.57 10.68L7.67 6.65L7.67 6.65Q7.49 5.90 7.33 5.14L7.33 5.14L7.33 5.14Q7.04 3.93 6.70 2.60L6.70 2.60L5.71 6.64L5.71 6.64Q5.48 7.58 5.24 8.64L5.24 8.64L5.24 8.64Q5.05 9.51 4.80 10.68L4.80 10.68L3.66 10.68L2.32 6.22L2.32 6.22Q2.04 5.28 1.64 4.03L1.64 4.03L1.64 4.03Q1.25 2.78 0.91 1.75L0.91 1.75L0.08 1.60L0.08 1.24L1.62 1.27L3.10 1.24L3.10 1.60L2.30 1.72L2.30 1.72Q2.54 2.78 2.77 3.72L2.77 3.72L2.77 3.72Q3.00 4.67 3.28 5.68L3.28 5.68L3.28 5.68Q3.55 6.68 3.82 7.66L3.82 7.66L3.82 7.66Q3.92 7.98 4.41 9.63L4.41 9.63L4.41 9.63Q4.72 8.34 5.03 7.04L5.03 7.04L5.03 7.04Q5.15 6.54 5.39 5.45L5.39 5.45L5.39 5.45Q5.52 4.89 5.96 2.82L5.96 2.82L5.96 2.82Q6.12 2.04 6.30 1.24L6.30 1.24L6.49 1.24L6.93 1.27L7.35 1.24L7.35 1.24Q7.74 3.15 8.28 5.43L8.28 5.43L9.34 9.60ZM18.60 8.52L18.97 8.81L18.97 8.81Q18.59 9.56 17.69 10.16L17.69 10.16L17.69 10.16Q17.23 10.45 16.78 10.59L16.78 10.59L16.78 10.59Q16.32 10.74 15.80 10.74L15.80 10.74L15.80 10.74Q14.24 10.74 13.36 9.78L13.36 9.78L13.36 9.78Q12.49 8.83 12.49 7.11L12.49 7.11L12.49 7.11Q12.49 5.46 13.52 4.28L13.52 4.28L13.52 4.28Q14.56 3.11 16.04 3.11L16.04 3.11L16.04 3.11Q17.32 3.11 18.03 3.81L18.03 3.81L18.03 3.81Q18.75 4.48 18.75 5.71L18.75 5.71L18.80 6.23L13.62 6.23L13.61 6.47L13.61 7.01L13.61 7.01Q13.61 8.30 14.27 9.09L14.27 9.09L14.27 9.09Q14.94 9.88 16.09 9.88L16.09 9.88L16.09 9.88Q16.54 9.88 16.92 9.77L16.92 9.77L16.92 9.77Q17.30 9.66 17.65 9.43L17.65 9.43L17.65 9.43Q17.99 9.20 18.23 8.96L18.23 8.96L18.23 8.96Q18.47 8.72 18.60 8.52L18.60 8.52ZM13.69 5.64L13.69 5.64L16.97 5.58L17.62 5.53L17.62 5.53Q17.62 4.62 17.22 4.16L17.22 4.16L17.22 4.16Q16.81 3.69 16.03 3.69L16.03 3.69L16.03 3.69Q14.98 3.69 14.27 4.48L14.27 4.48L14.27 4.48Q13.90 4.90 13.69 5.64ZM20.57 2.01L20.57 4.29L20.57 4.29Q21.09 3.67 21.64 3.39L21.64 3.39L21.64 3.39Q22.19 3.11 22.77 3.11L22.77 3.11L22.77 3.11Q24.13 3.11 24.93 4.09L24.93 4.09L24.93 4.09Q25.74 5.06 25.74 6.64L25.74 6.64L25.74 6.64Q25.74 8.35 24.66 9.57L24.66 9.57L24.66 9.57Q24.14 10.15 23.50 10.44L23.50 10.44L23.50 10.44Q22.85 10.74 22.07 10.74L22.07 10.74L22.07 10.74Q21.36 10.74 20.80 10.63L20.80 10.63L20.80 10.63Q20.23 10.53 19.55 10.53L19.55 10.53L19.36 10.53L19.10 10.60L19.46 10.06L19.46 10.06Q19.46 9.63 19.49 8.96L19.49 8.96L19.49 8.96Q19.53 8.29 19.53 8.05L19.53 8.05L19.53 3.31L19.47 0.95L18.56 0.81L18.56 0.45L19.46 0.32L19.46 0.32Q19.78 0.26 20.34 0.10L20.34 0.10L20.59 0.10L20.57 2.01ZM20.58 6.04L20.58 6.04L20.58 9.63L20.58 9.63Q20.74 9.76 21.28 9.97L21.28 9.97L21.28 9.97Q21.78 10.15 22.46 10.15L22.46 10.15L22.46 10.15Q23.37 10.15 23.98 9.25L23.98 9.25L23.98 9.25Q24.60 8.34 24.60 6.99L24.60 6.99L24.60 6.99Q24.60 5.60 24.00 4.78L24.00 4.78L24.00 4.78Q23.40 3.97 22.29 3.97L22.29 3.97L22.29 3.97Q21.49 3.97 21.04 4.53L21.04 4.53L21.04 4.53Q20.58 5.09 20.58 6.04ZM31.66 8.34L31.66 8.34L31.66 8.34Q31.66 9.34 30.77 10.04L30.77 10.04L30.77 10.04Q29.88 10.74 28.61 10.74L28.61 10.74L28.61 10.74Q27.86 10.74 27.12 10.50L27.12 10.50L27.12 10.50Q26.77 10.37 26.46 10.21L26.46 10.21L26.46 10.21Q26.14 10.04 25.82 9.83L25.82 9.83L26.36 9.13L26.82 8.42L27.12 8.58L26.83 9.35L26.83 9.35Q27.08 9.57 27.64 9.84L27.64 9.84L27.64 9.84Q28.18 10.07 28.91 10.07L28.91 10.07L28.91 10.07Q29.62 10.07 30.16 9.69L30.16 9.69L30.16 9.69Q30.69 9.31 30.69 8.71L30.69 8.71L30.69 8.71Q30.69 8.14 30.22 7.82L30.22 7.82L30.22 7.82Q29.70 7.49 28.75 7.23L28.75 7.23L28.75 7.23Q27.61 6.90 26.92 6.51L26.92 6.51L26.92 6.51Q26.24 6.11 26.24 5.17L26.24 5.17L26.24 5.17Q26.24 4.22 27.08 3.67L27.08 3.67L27.08 3.67Q27.49 3.40 28 3.25L28 3.25L28 3.25Q28.51 3.11 29.13 3.11L29.13 3.11L29.13 3.11Q29.73 3.11 30.38 3.23L30.38 3.23L30.38 3.23Q30.73 3.30 30.93 3.35L30.93 3.35L30.93 3.35Q31.12 3.41 31.30 3.48L31.30 3.48L30.76 4.91L30.48 4.81L30.50 4.17L30.50 4.17Q30.18 4.02 29.74 3.90L29.74 3.90L29.74 3.90Q29.45 3.82 29.26 3.79L29.26 3.79L29.26 3.79Q29.06 3.77 28.83 3.77L28.83 3.77L28.83 3.77Q28.06 3.77 27.64 4.06L27.64 4.06L27.64 4.06Q27.21 4.36 27.21 4.83L27.21 4.83L27.21 4.83Q27.21 5.31 27.65 5.65L27.65 5.65L27.65 5.65Q28.12 5.96 29.32 6.27L29.32 6.27L29.32 6.27Q30.51 6.59 31.07 7.08L31.07 7.08L31.07 7.08Q31.66 7.53 31.66 8.34ZM32.60 0.98L32.60 0.98L32.60 0.98Q32.60 0.68 32.80 0.48L32.80 0.48L32.80 0.48Q33.00 0.27 33.34 0.24L33.34 0.24L33.34 0.24Q33.64 0.24 33.85 0.46L33.85 0.46L33.85 0.46Q34.06 0.67 34.06 0.97L34.06 0.97L34.06 0.97Q34.06 1.27 33.87 1.47L33.87 1.47L33.87 1.47Q33.67 1.67 33.34 1.70L33.34 1.70L33.34 1.70Q33.05 1.70 32.81 1.49L32.81 1.49L32.81 1.49Q32.60 1.25 32.60 0.98ZM33.86 5.03L33.86 7.82L33.91 10.07L34.72 10.22L34.72 10.57L33.34 10.53L31.94 10.57L31.94 10.22L32.78 10.07L32.81 7.83L32.81 6.33L32.74 3.97L31.84 3.82L31.84 3.47L31.84 3.47Q32.13 3.43 32.41 3.39L32.41 3.39L32.41 3.39Q32.68 3.35 32.73 3.34L32.73 3.34L33.62 3.11L33.89 3.11L33.86 5.03ZM36.28 3.88L36.28 7.92L36.28 7.92Q36.28 8.96 36.48 9.42L36.48 9.42L36.48 9.42Q36.67 9.88 37.15 9.88L37.15 9.88L37.15 9.88Q37.48 9.88 37.75 9.71L37.75 9.71L37.75 9.71Q38.01 9.54 38.20 9.37L38.20 9.37L38.45 9.62L38.45 9.62Q38.33 9.82 38.12 10.04L38.12 10.04L38.12 10.04Q37.98 10.19 37.81 10.35L37.81 10.35L37.81 10.35Q37.39 10.74 36.70 10.74L36.70 10.74L36.70 10.74Q36.03 10.74 35.63 10.28L35.63 10.28L35.63 10.28Q35.23 9.83 35.23 9.02L35.23 9.02L35.23 3.88L34.40 3.94L34.40 3.54L35.23 3.30L35.16 1.60L36.34 1.27L36.28 3.31L38.07 3.29L37.81 3.91L36.28 3.88ZM44.79 8.52L45.16 8.81L45.16 8.81Q44.78 9.56 43.88 10.16L43.88 10.16L43.88 10.16Q43.42 10.45 42.97 10.59L42.97 10.59L42.97 10.59Q42.51 10.74 41.99 10.74L41.99 10.74L41.99 10.74Q40.43 10.74 39.55 9.78L39.55 9.78L39.55 9.78Q38.68 8.83 38.68 7.11L38.68 7.11L38.68 7.11Q38.68 5.46 39.71 4.28L39.71 4.28L39.71 4.28Q40.75 3.11 42.23 3.11L42.23 3.11L42.23 3.11Q43.51 3.11 44.22 3.81L44.22 3.81L44.22 3.81Q44.94 4.48 44.94 5.71L44.94 5.71L44.99 6.23L39.81 6.23L39.80 6.47L39.80 7.01L39.80 7.01Q39.80 8.30 40.46 9.09L40.46 9.09L40.46 9.09Q41.13 9.88 42.27 9.88L42.27 9.88L42.27 9.88Q42.73 9.88 43.11 9.77L43.11 9.77L43.11 9.77Q43.49 9.66 43.83 9.43L43.83 9.43L43.83 9.43Q44.18 9.20 44.42 8.96L44.42 8.96L44.42 8.96Q44.66 8.72 44.79 8.52L44.79 8.52ZM39.88 5.64L39.88 5.64L43.16 5.58L43.81 5.53L43.81 5.53Q43.81 4.62 43.41 4.16L43.41 4.16L43.41 4.16Q43.00 3.69 42.21 3.69L42.21 3.69L42.21 3.69Q41.17 3.69 40.46 4.48L40.46 4.48L40.46 4.48Q40.09 4.90 39.88 5.64ZM53.43 1.27L54.28 1.27L55.94 1.24L55.94 1.60L55.14 1.74L55.15 3.72L55.21 8.09L55.29 9.25L55.29 9.25Q55.29 9.90 55.43 10.07L55.43 10.07L56.24 10.22L56.24 10.57L54.67 10.53L53.22 10.57L53.22 10.22L54.02 10.07L54.11 8.09L54.02 1.76L50.92 10.57L49.98 10.57L46.87 1.76L46.84 4.87L46.84 8.48L46.84 8.48Q46.84 9.96 46.86 10.07L46.86 10.07L47.68 10.22L47.68 10.57L46.41 10.53L44.99 10.57L44.99 10.22L45.81 10.07L45.81 10.07Q45.88 9.88 45.88 8.48L45.88 8.48L45.88 8.48Q45.88 8.08 45.93 6.87L45.93 6.87L45.93 6.87Q45.98 5.67 45.98 4.87L45.98 4.87L46.00 2.81L45.97 2.28L45.97 2.28Q45.97 1.75 45.90 1.73L45.90 1.73L45.22 1.60L45.22 1.24L46.93 1.27L47.85 1.27L50.67 9.40L53.43 1.27ZM61.50 6.64L61.50 6.64L60.81 6.61L60.81 6.61Q60.15 6.61 59.57 6.79L59.57 6.79L59.57 6.79Q58.99 6.96 58.56 7.24L58.56 7.24L58.56 7.24Q58.17 7.53 57.97 7.87L57.97 7.87L57.97 7.87Q57.76 8.21 57.76 8.65L57.76 8.65L57.76 8.65Q57.76 9.13 58.10 9.51L58.10 9.51L58.10 9.51Q58.47 9.88 59.05 9.88L59.05 9.88L59.05 9.88Q60.18 9.88 60.81 9.00L60.81 9.00L60.81 9.00Q61.14 8.54 61.32 7.95L61.32 7.95L61.32 7.95Q61.50 7.35 61.50 6.64ZM61.49 8.79L61.49 8.79L61.49 8.79Q60.86 10.00 60.16 10.37L60.16 10.37L60.16 10.37Q59.46 10.74 58.81 10.74L58.81 10.74L58.81 10.74Q57.83 10.74 57.23 10.15L57.23 10.15L57.23 10.15Q56.63 9.57 56.63 8.78L56.63 8.78L56.63 8.78Q56.63 7.64 57.83 6.84L57.83 6.84L57.83 6.84Q59.04 6.04 60.93 6.04L60.93 6.04L61.56 6.04L61.56 5.58L61.56 5.58Q61.56 4.60 61.16 4.19L61.16 4.19L61.16 4.19Q60.77 3.77 59.93 3.77L59.93 3.77L59.93 3.77Q59.26 3.77 58.66 3.99L58.66 3.99L58.03 4.24L58.06 4.98L57.78 5.08L57.16 3.67L57.16 3.67Q57.45 3.54 58.14 3.32L58.14 3.32L58.14 3.32Q58.84 3.11 60.10 3.11L60.10 3.11L60.10 3.11Q61.14 3.11 61.81 3.61L61.81 3.61L61.81 3.61Q62.48 4.11 62.48 4.96L62.48 4.96L62.48 8.22L62.48 8.22Q62.48 9.01 62.55 9.44L62.55 9.44L62.55 9.44Q62.62 9.70 62.70 9.85L62.70 9.85L62.70 9.85Q62.73 9.94 62.85 10.06L62.85 10.06L63.40 10.22L63.40 10.58L62.67 10.56L62.27 10.54L62.27 10.54Q62.15 10.54 62.03 10.54L62.03 10.54L62.03 10.54Q61.92 10.54 61.77 10.57L61.77 10.57L61.77 10.57Q61.65 10.57 61.58 10.04L61.58 10.04L61.58 10.04Q61.55 9.78 61.54 9.64L61.54 9.64L61.54 9.64Q61.49 9.11 61.49 8.79ZM64.96 10.41L64.96 10.41L64.96 11.35L65.01 13.59L65.97 13.75L65.97 14.10L64.44 14.06L63.05 14.10L63.05 13.75L63.88 13.59L63.91 11.35L63.91 6.29L63.85 3.93L62.95 3.78L62.95 3.43L62.95 3.43Q63.21 3.43 63.35 3.41L63.35 3.41L63.35 3.41Q63.48 3.40 63.88 3.32L63.88 3.32L63.88 3.32Q64.27 3.25 64.77 3.11L64.77 3.11L65.07 3.11L64.95 4.49L64.95 4.49Q65.20 4.15 65.48 3.88L65.48 3.88L65.48 3.88Q65.76 3.61 66.07 3.44L66.07 3.44L66.07 3.44Q66.38 3.28 66.65 3.19L66.65 3.19L66.65 3.19Q66.93 3.11 67.26 3.11L67.26 3.11L67.26 3.11Q68.56 3.11 69.34 4.09L69.34 4.09L69.34 4.09Q70.12 5.08 70.12 6.66L70.12 6.66L70.12 6.66Q70.12 8.34 69.08 9.54L69.08 9.54L69.08 9.54Q68.56 10.14 67.89 10.44L67.89 10.44L67.89 10.44Q67.22 10.74 66.37 10.74L66.37 10.74L66.37 10.74Q66.04 10.74 65.64 10.64L65.64 10.64L65.64 10.64Q65.45 10.59 65.28 10.54L65.28 10.54L65.28 10.54Q65.10 10.49 64.96 10.41ZM64.96 6.49L64.96 9.58L65.67 9.93L65.67 9.93Q66.16 10.15 66.77 10.15L66.77 10.15L66.77 10.15Q67.71 10.15 68.34 9.23L68.34 9.23L68.34 9.23Q68.65 8.77 68.82 8.20L68.82 8.20L68.82 8.20Q68.99 7.64 68.99 6.97L68.99 6.97L68.99 6.97Q68.99 5.56 68.39 4.77L68.39 4.77L68.39 4.77Q67.78 3.97 66.66 3.97L66.66 3.97L66.66 3.97Q65.83 3.97 65.39 4.61L65.39 4.61L65.39 4.61Q64.96 5.25 64.96 6.49L64.96 6.49ZM72.09 10.41L72.09 10.41L72.09 11.35L72.13 13.59L73.10 13.75L73.10 14.10L71.56 14.06L70.18 14.10L70.18 13.75L71.00 13.59L71.04 11.35L71.04 6.29L70.98 3.93L70.07 3.78L70.07 3.43L70.07 3.43Q70.33 3.43 70.47 3.41L70.47 3.41L70.47 3.41Q70.61 3.40 71.00 3.32L71.00 3.32L71.00 3.32Q71.39 3.25 71.89 3.11L71.89 3.11L72.19 3.11L72.07 4.49L72.07 4.49Q72.32 4.15 72.60 3.88L72.60 3.88L72.60 3.88Q72.88 3.61 73.19 3.44L73.19 3.44L73.19 3.44Q73.50 3.28 73.78 3.19L73.78 3.19L73.78 3.19Q74.05 3.11 74.38 3.11L74.38 3.11L74.38 3.11Q75.68 3.11 76.46 4.09L76.46 4.09L76.46 4.09Q77.24 5.08 77.24 6.66L77.24 6.66L77.24 6.66Q77.24 8.34 76.21 9.54L76.21 9.54L76.21 9.54Q75.68 10.14 75.02 10.44L75.02 10.44L75.02 10.44Q74.35 10.74 73.49 10.74L73.49 10.74L73.49 10.74Q73.17 10.74 72.76 10.64L72.76 10.64L72.76 10.64Q72.57 10.59 72.40 10.54L72.40 10.54L72.40 10.54Q72.23 10.49 72.09 10.41ZM72.09 6.49L72.09 9.58L72.80 9.93L72.80 9.93Q73.29 10.15 73.90 10.15L73.90 10.15L73.90 10.15Q74.84 10.15 75.47 9.23L75.47 9.23L75.47 9.23Q75.78 8.77 75.95 8.20L75.95 8.20L75.95 8.20Q76.11 7.64 76.11 6.97L76.11 6.97L76.11 6.97Q76.11 5.56 75.51 4.77L75.51 4.77L75.51 4.77Q74.91 3.97 73.79 3.97L73.79 3.97L73.79 3.97Q72.95 3.97 72.52 4.61L72.52 4.61L72.52 4.61Q72.09 5.25 72.09 6.49L72.09 6.49ZM77.92 0.98L77.92 0.98L77.92 0.98Q77.92 0.68 78.13 0.48L78.13 0.48L78.13 0.48Q78.33 0.27 78.66 0.24L78.66 0.24L78.66 0.24Q78.96 0.24 79.17 0.46L79.17 0.46L79.17 0.46Q79.39 0.67 79.39 0.97L79.39 0.97L79.39 0.97Q79.39 1.27 79.19 1.47L79.19 1.47L79.19 1.47Q79.00 1.67 78.66 1.70L78.66 1.70L78.66 1.70Q78.38 1.70 78.14 1.49L78.14 1.49L78.14 1.49Q77.92 1.25 77.92 0.98ZM79.19 5.03L79.19 7.82L79.23 10.07L80.04 10.22L80.04 10.57L78.66 10.53L77.27 10.57L77.27 10.22L78.10 10.07L78.14 7.83L78.14 6.33L78.07 3.97L77.16 3.82L77.16 3.47L77.16 3.47Q77.46 3.43 77.73 3.39L77.73 3.39L77.73 3.39Q78.01 3.35 78.05 3.34L78.05 3.34L78.95 3.11L79.21 3.11L79.19 5.03ZM87.21 5.33L87.21 7.82L87.28 10.07L88.11 10.22L88.11 10.57L86.67 10.53L86.12 10.57L86.12 10.22L86.14 10.07L86.14 6.04L86.14 6.04Q86.14 4.98 85.76 4.47L85.76 4.47L85.76 4.47Q85.38 3.97 84.51 3.97L84.51 3.97L84.51 3.97Q83.59 3.97 83.06 4.71L83.06 4.71L83.06 4.71Q82.53 5.46 82.53 6.68L82.53 6.68L82.53 7.82L82.58 10.07L83.39 10.22L83.39 10.57L82.01 10.53L80.62 10.57L80.62 10.22L81.44 10.07L81.49 7.83L81.49 6.29L81.41 3.93L80.51 3.78L80.51 3.43L80.51 3.43Q80.78 3.43 80.93 3.41L80.93 3.41L80.93 3.41Q81.07 3.40 81.41 3.32L81.41 3.32L81.41 3.32Q81.87 3.25 82.32 3.11L82.32 3.11L82.62 3.11L82.50 4.59L82.50 4.59Q83.08 3.90 83.71 3.50L83.71 3.50L83.71 3.50Q84.33 3.11 85.05 3.11L85.05 3.11L85.05 3.11Q86.00 3.11 86.60 3.72L86.60 3.72L86.60 3.72Q87.21 4.33 87.21 5.33L87.21 5.33ZM91.51 3.68L91.51 3.68L91.51 3.68Q90.62 3.68 90.08 4.28L90.08 4.28L90.08 4.28Q89.54 4.87 89.54 5.86L89.54 5.86L89.54 5.86Q89.54 6.78 90.09 7.37L90.09 7.37L90.09 7.37Q90.64 7.96 91.51 7.96L91.51 7.96L91.51 7.96Q92.33 7.96 92.91 7.36L92.91 7.36L92.91 7.36Q93.47 6.74 93.47 5.83L93.47 5.83L93.47 5.83Q93.47 5.31 93.35 4.95L93.35 4.95L93.35 4.95Q93.23 4.59 92.94 4.27L92.94 4.27L92.94 4.27Q92.42 3.68 91.51 3.68ZM88.41 5.81L88.41 5.81L88.41 5.81Q88.41 4.68 89.33 3.90L89.33 3.90L89.33 3.90Q90.24 3.11 91.51 3.11L91.51 3.11L91.51 3.11Q92.10 3.11 92.55 3.25L92.55 3.25L93.56 3.42L95.21 3.47L95.22 3.68L95.22 3.80L95.02 3.88L95.02 3.88Q94.84 3.97 93.78 3.97L93.78 3.97L93.78 3.97Q94.62 4.72 94.62 5.80L94.62 5.80L94.62 5.80Q94.62 6.89 93.69 7.71L93.69 7.71L93.69 7.71Q92.77 8.53 91.51 8.53L91.51 8.53L91.51 8.53Q90.66 8.53 90.16 8.33L90.16 8.33L90.16 8.33Q90.15 8.45 90.02 8.79L90.02 8.79L90.02 8.79Q89.62 9.90 89.59 9.91L89.59 9.91L90.02 9.78L90.02 9.78Q90.26 9.71 90.69 9.66L90.69 9.66L90.69 9.66Q91.13 9.60 91.73 9.60L91.73 9.60L91.73 9.60Q93.04 9.60 93.98 10.15L93.98 10.15L93.98 10.15Q94.91 10.69 94.91 11.74L94.91 11.74L94.91 11.74Q94.91 12.77 93.80 13.49L93.80 13.49L93.80 13.49Q92.69 14.20 91.22 14.20L91.22 14.20L91.22 14.20Q89.93 14.20 89.09 13.64L89.09 13.64L89.09 13.64Q88.24 13.08 88.24 12.33L88.24 12.33L88.24 12.33Q88.24 11.90 88.44 11.61L88.44 11.61L88.44 11.61Q88.63 11.32 88.85 11.13L88.85 11.13L89.23 11.39L89.23 11.39Q89.14 11.51 89.10 11.69L89.10 11.69L89.06 12.07L89.06 12.07Q89.06 12.49 89.78 12.99L89.78 12.99L89.78 12.99Q90.14 13.23 90.60 13.34L90.60 13.34L90.60 13.34Q91.07 13.46 91.69 13.46L91.69 13.46L91.69 13.46Q92.54 13.46 93.16 13.10L93.16 13.10L93.16 13.10Q93.77 12.74 93.77 11.94L93.77 11.94L93.77 11.94Q93.77 11.16 92.73 10.71L92.73 10.71L92.73 10.71Q92.30 10.52 91.59 10.52L91.59 10.52L91.59 10.52Q90.73 10.52 89.42 10.83L89.42 10.83L88.83 10.18L89.12 9.51L89.12 9.51Q89.23 9.27 89.36 8.89L89.36 8.89L89.36 8.89Q89.49 8.51 89.61 8.09L89.61 8.09L89.61 8.09Q89.37 7.97 89.23 7.83L89.23 7.83L89.23 7.83Q88.41 7.11 88.41 5.81Z"></path></g><!----><!----></svg>