<svg data-v-fde0c5aa="" xmlns="http://www.w3.org/2000/svg" viewBox="0 0 300 300" class="iconLeft"><!----><defs data-v-fde0c5aa=""><!----></defs><rect data-v-fde0c5aa="" fill="transparent" x="0" y="0" width="300px" height="300px" class="logo-background-square"></rect><defs data-v-fde0c5aa=""><linearGradient data-v-fde0c5aa="" gradientTransform="rotate(25)" id="2edbf613-8b74-4358-ad71-d1568d4c21f1" x1="0%" y1="0%" x2="100%" y2="0%"><stop data-v-fde0c5aa="" offset="0%" stop-color="#929292" stop-opacity="1"></stop><stop data-v-fde0c5aa="" offset="100%" stop-color="#2B90B9" stop-opacity="1"></stop></linearGradient></defs><g data-v-fde0c5aa="" id="987655aa-0342-4604-bdbe-5e1099a030fd" fill="url(#2edbf613-8b74-4358-ad71-d1568d4c21f1)" transform="matrix(1.7068190574645996,0,0,1.7068190574645996,89.48877310883498,137.932788975162)"><path d="M14.14 1.86L11.93 1.86L11.93 2.17L12.96 2.52L10.35 9.24L7.39 1.86L5.25 1.86L5.25 2.17L6.30 2.52L3.60 9.24L0.73 1.86L-0.18 1.86L3.19 10.26L4.02 10.26L6.97 2.90L9.94 10.26L10.77 10.26ZM20.54 7C20.54 4.79 19.38 3.58 17.60 3.58C15.82 3.58 14.62 4.79 14.62 7C14.62 9.28 15.96 10.40 18.06 10.40C18.65 10.40 19.49 10.26 20.02 10.08L20.02 9.38C19.49 9.56 18.65 9.70 18.06 9.70C16.51 9.70 15.50 8.96 15.41 7.22L20.54 7.22C20.54 7.15 20.54 7.07 20.54 7ZM19.77 6.55L15.43 6.55C15.57 5.07 16.39 4.28 17.60 4.28C18.73 4.28 19.63 5.07 19.77 6.55ZM27.82 7C27.82 4.79 26.61 3.58 24.84 3.58C24.35 3.58 23.73 3.67 23.27 3.82L23.27 0L22.50 0L22.50 10.02C23.17 10.22 24.12 10.40 24.84 10.40C26.61 10.40 27.82 9.20 27.82 7ZM27.03 7C27.03 8.76 26.15 9.70 24.84 9.70C24.32 9.70 23.79 9.62 23.27 9.48L23.27 4.51C23.79 4.37 24.32 4.28 24.84 4.28C26.15 4.28 27.03 5.22 27.03 7ZM34.03 8.48C34.03 7.28 33.14 6.57 31.60 6.57C30.48 6.57 30.02 6.10 30.02 5.39C30.02 4.86 30.44 4.28 31.84 4.28C32.33 4.28 32.80 4.35 33.25 4.47L33.59 5.46L33.89 5.46L33.89 3.95C33.28 3.75 32.56 3.58 31.84 3.58C29.96 3.58 29.22 4.48 29.22 5.42C29.22 6.58 30.11 7.31 31.60 7.31C32.77 7.31 33.24 7.77 33.24 8.51C33.24 9.11 32.80 9.70 31.32 9.70C30.59 9.70 29.92 9.58 29.18 9.32L29.18 10.02C29.92 10.28 30.59 10.40 31.32 10.40C33.28 10.40 34.03 9.52 34.03 8.48ZM36.99 1.40C36.99 1.04 36.69 0.73 36.33 0.73C35.97 0.73 35.66 1.04 35.66 1.40C35.66 1.76 35.97 2.06 36.33 2.06C36.69 2.06 36.99 1.76 36.99 1.40ZM37.76 10.26L37.76 9.95L36.71 9.60L36.71 3.72L35.94 3.72L35.94 10.26ZM42.81 10.29L42.81 9.59C42.62 9.66 42.31 9.70 42.11 9.70C40.99 9.70 40.61 9.24 40.61 8.26L40.61 4.41L42.81 4.41L42.81 3.72L40.61 3.72L40.61 1.82L39.84 1.93L39.84 3.72L38.44 3.72L38.44 4.41L39.84 4.41L39.84 8.26C39.84 9.63 40.57 10.40 42.11 10.40C42.31 10.40 42.62 10.36 42.81 10.29ZM49.87 7C49.87 4.79 48.71 3.58 46.93 3.58C45.15 3.58 43.95 4.79 43.95 7C43.95 9.28 45.29 10.40 47.39 10.40C47.98 10.40 48.82 10.26 49.35 10.08L49.35 9.38C48.82 9.56 47.98 9.70 47.39 9.70C45.84 9.70 44.83 8.96 44.74 7.22L49.87 7.22C49.87 7.15 49.87 7.07 49.87 7ZM49.10 6.55L44.76 6.55C44.90 5.07 45.72 4.28 46.93 4.28C48.06 4.28 48.96 5.07 49.10 6.55ZM59.78 10.26L58.94 1.86L58.23 1.86L55.55 5.56L52.86 1.86L51.91 1.86L52.08 2.66L51.32 10.26L52.09 10.26L52.79 2.97L55.31 6.47L55.78 6.47L58.30 2.97L59.00 10.26ZM67.41 10.26L67.41 9.56C67.21 9.63 66.99 9.70 66.75 9.70C66.43 9.70 66.29 9.52 66.29 9.23L66.29 5.96C66.29 4.41 65.35 3.58 63.67 3.58C63.17 3.58 62.48 3.71 61.89 3.89L61.89 5.46L62.20 5.46L62.55 4.42C62.94 4.34 63.35 4.28 63.67 4.28C64.93 4.28 65.52 4.82 65.52 5.96L65.52 6.55L63.50 6.55C61.95 6.55 61.22 7.32 61.22 8.34C61.22 9.53 62.16 10.40 63.95 10.40C64.60 10.40 65.23 10.26 65.76 10.04C65.94 10.28 66.26 10.40 66.54 10.40C66.86 10.40 67.17 10.33 67.41 10.26ZM65.52 9.41C65.06 9.59 64.53 9.72 63.95 9.72C62.65 9.72 62.01 9.18 62.01 8.34C62.01 7.67 62.44 7.22 63.50 7.22L65.52 7.22ZM74.49 7C74.49 4.79 73.29 3.58 71.51 3.58C70.80 3.58 69.83 3.78 69.12 3.98L68.92 4.03L69.17 4.80L69.17 14L69.94 14L69.94 10.16C70.41 10.32 71.02 10.40 71.51 10.40C73.29 10.40 74.49 9.20 74.49 7ZM73.71 7C73.71 8.76 72.83 9.70 71.51 9.70C70.99 9.70 70.46 9.62 69.94 9.48L69.94 4.51C70.46 4.37 70.99 4.28 71.51 4.28C72.83 4.28 73.71 5.22 73.71 7ZM81.77 7C81.77 4.79 80.57 3.58 78.79 3.58C78.08 3.58 77.11 3.78 76.40 3.98L76.20 4.03L76.45 4.80L76.45 14L77.22 14L77.22 10.16C77.69 10.32 78.30 10.40 78.79 10.40C80.57 10.40 81.77 9.20 81.77 7ZM80.99 7C80.99 8.76 80.11 9.70 78.79 9.70C78.27 9.70 77.74 9.62 77.22 9.48L77.22 4.51C77.74 4.37 78.27 4.28 78.79 4.28C80.11 4.28 80.99 5.22 80.99 7ZM84.78 1.40C84.78 1.04 84.49 0.73 84.13 0.73C83.76 0.73 83.45 1.04 83.45 1.40C83.45 1.76 83.76 2.06 84.13 2.06C84.49 2.06 84.78 1.76 84.78 1.40ZM85.55 10.26L85.55 9.95L84.50 9.60L84.50 3.72L83.73 3.72L83.73 10.26ZM93.21 10.26L93.21 9.95L92.18 9.60L92.18 5.96C92.18 4.41 91.24 3.58 89.56 3.58C88.84 3.58 87.88 3.78 87.16 3.98L86.97 4.03L87.22 4.80L87.22 10.26L87.99 10.26L87.99 4.51C88.51 4.37 89.04 4.28 89.56 4.28C90.82 4.28 91.41 4.82 91.41 5.96L91.41 10.26ZM99.90 4.03L99.71 3.98C99.04 3.79 97.78 3.58 96.95 3.58C95.24 3.58 94.25 4.68 94.25 5.88C94.25 6.99 95.10 8.01 96.60 8.15C96.38 8.29 96.21 8.57 96.21 8.86C96.21 9.16 96.38 9.44 96.60 9.58C95.10 9.72 94.25 10.74 94.25 11.84C94.25 13.05 95.24 14.14 96.95 14.14C98.66 14.14 99.65 13.05 99.65 11.84C99.65 10.89 99.01 10.00 97.87 9.69C97.20 9.51 96.96 9.24 96.96 8.86C96.96 8.48 97.20 8.22 97.87 8.04C99.01 7.73 99.65 6.83 99.65 5.88L99.65 4.80ZM98.90 5.88C98.90 6.76 98.18 7.46 96.95 7.46C95.72 7.46 95.02 6.78 95.00 5.88C95.00 4.98 95.72 4.28 96.95 4.28C97.61 4.28 98.41 4.40 98.90 4.51ZM98.90 11.84C98.90 12.74 98.18 13.44 96.95 13.44C95.72 13.44 95.02 12.75 95.00 11.84C95.00 10.96 95.72 10.26 96.95 10.26C98.18 10.26 98.88 10.95 98.90 11.84Z"></path></g><defs data-v-fde0c5aa=""><linearGradient data-v-fde0c5aa="" gradientTransform="rotate(25)" id="aac2ee5f-58f4-4179-a8bd-8bba87758fb7" x1="0%" y1="0%" x2="100%" y2="0%"><stop data-v-fde0c5aa="" offset="0%" stop-color="#08728C" stop-opacity="1"></stop><stop data-v-fde0c5aa="" offset="100%" stop-color="#6D6D6D" stop-opacity="1"></stop></linearGradient></defs><g data-v-fde0c5aa="" id="0126c055-2377-431e-9b53-3a2123200909" stroke="none" fill="url(#aac2ee5f-58f4-4179-a8bd-8bba87758fb7)" transform="matrix(0.3661887049674988,0,0,0.3661887049674988,39.77358017137772,131.6317051919392)"><g><path d="M99.02 54.411l-6.084-.585a.385.385 0 0 0-.422.347 40.535 40.535 0 0 1-.9 5.363l-2.779-.788A39.405 39.405 0 0 0 89 42.331l2.752-.723c.351 1.703.604 3.433.75 5.149a.382.382 0 0 0 .415.353l6.151-.48a.389.389 0 0 0 .355-.416 50.897 50.897 0 0 0-2.698-12.673.386.386 0 0 0-.495-.235l-5.831 2.1a.386.386 0 0 0-.24.471l.03.101a42.427 42.427 0 0 1 1.4 4.874l-2.75.722a39.745 39.745 0 0 0-7.265-15.517l2.35-1.697a43.33 43.33 0 0 1 3.108 4.728l.06.092a.386.386 0 0 0 .516.125l5.341-3.068c.17-.098.204-.385.126-.566a48.335 48.335 0 0 0-7.76-10.225.388.388 0 0 0-.546-.004l-4.383 4.31a.386.386 0 0 0-.004.549 39.642 39.642 0 0 1 3.067 3.447l-2.651 1.916a.388.388 0 0 0-.078.551 38.987 38.987 0 0 1 7.388 15.639.383.383 0 0 0-.064.33.38.38 0 0 0 .185.238c.503 2.46.764 4.96.781 7.472l-8.616.245a30.289 30.289 0 0 0-4.1-15.171.388.388 0 0 0-.531-.137l-6.083 3.61a.385.385 0 0 0-.137.526c1.989 3.406 2.997 7.184 2.997 11.226 0 4.055-1.012 7.829-3.01 11.216a.388.388 0 0 0 .138.531l6.126 3.559a.385.385 0 0 0 .527-.137c2.584-4.357 3.95-9.215 4.065-14.45l8.622-.244a38.74 38.74 0 0 1-.944 7.989.384.384 0 0 0-.126.54 39.243 39.243 0 0 1-2.613 7.462c-1.005 2.143-2.666 4.846-4.443 7.23a.387.387 0 0 0 .08.543l2.66 1.96a43.275 43.275 0 0 1-3.626 4.073.387.387 0 0 0-.001.55l4.354 4.34a.393.393 0 0 0 .274.112.382.382 0 0 0 .272-.112c3.148-3.125 5.721-6.439 7.867-10.127a.385.385 0 0 0-.137-.527l-5.287-3.143a.384.384 0 0 0-.295-.042.379.379 0 0 0-.237.18 41.532 41.532 0 0 1-2.713 4.082l-2.359-1.739c1.718-2.346 3.308-4.958 4.29-7.052a40.049 40.049 0 0 0 2.637-7.485l2.77.786a46.824 46.824 0 0 1-1.446 4.69c-.074.2.028.42.227.495l5.775 2.16a.387.387 0 0 0 .498-.228c.975-2.62 2.336-6.776 2.884-12.573a.386.386 0 0 0-.347-.42zm-8-18.408l5.103-1.837a50.238 50.238 0 0 1 2.496 11.724l-5.382.42a45.127 45.127 0 0 0-.784-5.117.383.383 0 0 0-.062-.289 44.57 44.57 0 0 0-1.371-4.9zm-9.817-15.971l3.831-3.767a47.395 47.395 0 0 1 7.196 9.493l-4.677 2.686c-1.839-3.17-3.92-5.928-6.35-8.412zm-5.356 44.604l-5.457-3.17c1.939-3.422 2.922-7.212 2.922-11.273 0-4.05-.979-7.844-2.911-11.283l5.419-3.214a29.511 29.511 0 0 1 3.8 14.497c0 5.311-1.235 10.041-3.773 14.443zm8.58 11.976a.418.418 0 0 0 .096-.124 42.28 42.28 0 0 0 2.752-4.067l4.624 2.748c-2.01 3.392-4.395 6.462-7.277 9.365l-3.809-3.795a43.452 43.452 0 0 0 3.615-4.127zm11.466-9.84l-5.053-1.89a47.556 47.556 0 0 0 1.397-4.634.377.377 0 0 0 .068-.276c.438-1.821.758-3.63.94-5.34l5.316.512c-.537 5.249-1.743 9.096-2.668 11.628zM2.671 37.545l5.924 1.639a.395.395 0 0 0 .295-.036.386.386 0 0 0 .18-.236 39.855 39.855 0 0 1 1.457-4.375l2.982 1.34a.387.387 0 0 0 .518-.208 38.963 38.963 0 0 1 9.847-14.22c.113.01.231-.022.319-.109a.383.383 0 0 0 .114-.281 38.604 38.604 0 0 1 6.08-4.413l4.53 7.355a30.338 30.338 0 0 0-11.01 10.964.385.385 0 0 0 .136.527l6.078 3.613c.095.058.209.067.307.038a.387.387 0 0 0 .237-.18C34.67 32.047 42.118 27.752 50.1 27.752a.387.387 0 0 0 .385-.427v-7.036a.387.387 0 0 0-.387-.387c-5.14 0-10.12 1.323-14.507 3.72l-4.532-7.361a38.713 38.713 0 0 1 7.39-3.176.388.388 0 0 0 .525-.159 39.19 39.19 0 0 1 7.77-1.47c3.36-.29 7.056.066 8.489.23a.384.384 0 0 0 .429-.34l.37-3.282c1.79.252 3.573.62 5.34 1.102a.386.386 0 0 0 .473-.274l1.582-5.941a.387.387 0 0 0-.272-.473C58.873 1.311 54.716.74 50.449.731c-.223-.012-.384.17-.387.382l-.078 6.149a.385.385 0 0 0 .385.392c1.629.006 3.264.11 4.896.31l-.328 2.912c-1.662-.178-5.099-.463-8.26-.19a40.078 40.078 0 0 0-7.797 1.46l-.7-2.792a47.214 47.214 0 0 1 4.778-1.094.388.388 0 0 0 .315-.445L42.26 1.736a.384.384 0 0 0-.447-.318c-2.768.47-7.06 1.375-12.332 3.788a.387.387 0 0 0-.19.513l2.538 5.56c.088.195.32.28.511.192a41.113 41.113 0 0 1 5.097-1.9l.703 2.8a39.389 39.389 0 0 0-14.297 8.066l-2.002-2.02a44.075 44.075 0 0 1 4.087-3.227.386.386 0 0 0 .097-.536l-3.49-5.085a.387.387 0 0 0-.54-.099 50.975 50.975 0 0 0-9.626 8.674.386.386 0 0 0 .044.547l4.73 3.998c.154.129.38.12.523-.023l.08-.08a42.452 42.452 0 0 1 3.521-3.65l2.002 2.02a39.716 39.716 0 0 0-9.806 14.052l-2.642-1.187a43.444 43.444 0 0 1 2.536-5.055l.05-.098a.386.386 0 0 0-.15-.51l-5.324-3.09a.385.385 0 0 0-.484.077 1.02 1.02 0 0 0-.072.093 48.342 48.342 0 0 0-4.974 11.833.387.387 0 0 0 .27.474zm47.04-16.867v6.303c-7.983.135-15.402 4.416-19.521 11.265l-5.42-3.222c5.254-8.75 14.75-14.21 24.941-14.346zm1.05-13.793l.069-5.378c3.942.04 7.794.57 11.75 1.618L61.2 8.32a43.94 43.94 0 0 0-5.396-1.067.367.367 0 0 0-.122-.016 42.223 42.223 0 0 0-4.92-.352zM37.748 8.673a.32.32 0 0 0-.136.01.36.36 0 0 0-.148.074 42.491 42.491 0 0 0-5.092 1.852l-2.217-4.858A47.27 47.27 0 0 1 41.56 2.246l.886 5.319c-1.579.29-3.162.663-4.699 1.108zM21.13 18.014a.39.39 0 0 0-.222.2 44.47 44.47 0 0 0-3.559 3.638l-4.14-3.5a50.25 50.25 0 0 1 8.907-8.024l3.054 4.448a45.02 45.02 0 0 0-4.04 3.238zM7.87 25.927l4.667 2.708c-1.825 3.171-3.172 6.35-4.111 9.7l-5.176-1.43a47.396 47.396 0 0 1 4.62-10.978zM70.585 87.784a.388.388 0 0 0-.525-.16 39.823 39.823 0 0 1-4.173 1.96l-1.082-3.087a.39.39 0 0 0-.507-.232A38.967 38.967 0 0 1 47.202 88.9a.388.388 0 0 0-.298-.156.413.413 0 0 0-.281.11 38.643 38.643 0 0 1-15.585-4.812l3.972-7.6a30.278 30.278 0 0 0 15.09 4.043.387.387 0 0 0 .387-.387v-7.077a.387.387 0 0 0-.387-.387c-7.989 0-15.436-4.3-19.438-11.223a.387.387 0 0 0-.528-.14l-6.155 3.502a.384.384 0 0 0-.143.529A30.344 30.344 0 0 0 34.344 76.05l-3.977 7.609a39.337 39.337 0 0 1-6.155-4.478c-1.761-1.565-3.87-3.913-5.65-6.286l-.023-.034c-.027-.034-2.696-3.53-4.986-9.364-1.417-3.615-1.63-6.143-1.631-6.17a.386.386 0 0 0-.443-.35l-3.363.501a43.326 43.326 0 0 1-.584-5.07.388.388 0 0 0-.129-.267.405.405 0 0 0-.281-.097l-6.142.383a.386.386 0 0 0-.361.408c.252 4.429 1.03 8.553 2.373 12.605.066.2.28.31.484.246l5.857-1.875a.384.384 0 0 0 .25-.489 41.63 41.63 0 0 1-1.325-5.083l2.939-.439c.115.875.495 3.068 1.635 5.98 1.965 5.003 4.153 8.25 4.862 9.239l-2.33 1.761a43.141 43.141 0 0 1-2.873-4.635.393.393 0 0 0-.23-.187.393.393 0 0 0-.296.03l-5.404 2.94a.387.387 0 0 0-.155.524c2.101 3.907 4.547 7.315 7.476 10.42a.386.386 0 0 0 .544.019l4.515-4.171a.386.386 0 0 0 .019-.55 41.662 41.662 0 0 1-3.141-3.764l2.336-1.767c1.763 2.316 3.816 4.585 5.544 6.12a40.082 40.082 0 0 0 6.31 4.586l-1.336 2.554a47.04 47.04 0 0 1-4.172-2.77.387.387 0 0 0-.54.077l-3.713 4.92a.38.38 0 0 0-.073.287.378.378 0 0 0 .15.255 48.01 48.01 0 0 0 11.232 6.34.387.387 0 0 0 .502-.213l2.29-5.666a.388.388 0 0 0-.212-.504 40.72 40.72 0 0 1-4.794-2.338l1.336-2.557a39.399 39.399 0 0 0 15.81 4.892l-.088 2.843a44.388 44.388 0 0 1-5.15-.744.388.388 0 0 0-.456.296l-1.292 6.032a.392.392 0 0 0 .3.46 51.365 51.365 0 0 0 10.426 1.082c.838 0 1.671-.022 2.493-.064a.389.389 0 0 0 .366-.408l-.355-6.186a.387.387 0 0 0-.377-.365l-.115-.001a42.513 42.513 0 0 1-5.068-.043l.089-2.842a39.764 39.764 0 0 0 16.945-2.551l.959 2.734a44.302 44.302 0 0 1-5.51 1.659.387.387 0 0 0-.282.464L60.8 97.98c.042.182.214.318.397.297.023-.002.081-.007.104-.012a48.224 48.224 0 0 0 12.014-4.534.386.386 0 0 0 .16-.522l-2.89-5.425zM24.702 65.252l5.485-3.121c4.117 6.856 11.538 11.14 19.526 11.274v6.305c-10.245-.135-19.767-5.639-25.01-14.458zm-15.974-2.06l-5.12 1.64c-1.212-3.753-1.932-7.575-2.195-11.659l5.37-.334a43.23 43.23 0 0 0 1.945 10.354zm9.403 16.221l-3.947 3.648c-2.683-2.889-4.95-6.05-6.914-9.64l4.725-2.568a43.997 43.997 0 0 0 2.93 4.64.452.452 0 0 0 .087.12 42.351 42.351 0 0 0 3.119 3.8zm15.359 10.78l-2.003 4.952A47.145 47.145 0 0 1 21.1 89.28l3.247-4.304c2.892 2.116 6.112 3.953 9.143 5.218zm18.494 3.164l.309 5.415c-3.901.175-8.02-.151-11.952-.943l1.13-5.276c1.686.33 3.407.567 5.132.703a.393.393 0 0 0 .289.022c1.707.124 3.415.152 5.092.079zm9.479 4.074l-1.248-5.249c3.562-.857 6.797-2.069 9.87-3.693l2.523 4.742a47.33 47.33 0 0 1-11.145 4.2zM50.1 34.282c-8.774 0-15.913 7.138-15.913 15.91 0 8.774 7.139 15.912 15.913 15.912 8.774 0 15.912-7.138 15.912-15.911s-7.138-15.91-15.912-15.91zm0 31.049c-8.348 0-15.14-6.79-15.14-15.138 0-8.347 6.792-15.137 15.14-15.137 8.347 0 15.14 6.79 15.14 15.137 0 8.347-6.793 15.138-15.14 15.138z"></path></g></g><!----></svg>