<svg data-v-fde0c5aa="" xmlns="http://www.w3.org/2000/svg" viewBox="0 0 300 300" class="iconLeft"><!----><defs data-v-fde0c5aa=""><!----></defs><rect data-v-fde0c5aa="" fill="transparent" x="0" y="0" width="300px" height="300px" class="logo-background-square"></rect><defs data-v-fde0c5aa=""><linearGradient data-v-fde0c5aa="" gradientTransform="rotate(25)" id="1adeb1e8-1b8b-4daa-b9ad-725360667b35" x1="0%" y1="0%" x2="100%" y2="0%"><stop data-v-fde0c5aa="" offset="0%" stop-color="#3B3B3B" stop-opacity="1"></stop><stop data-v-fde0c5aa="" offset="100%" stop-color="#2A13BD" stop-opacity="1"></stop></linearGradient></defs><g data-v-fde0c5aa="" id="a07d1e6c-d2df-4bd7-a575-54942342a13b" fill="url(#1adeb1e8-1b8b-4daa-b9ad-725360667b35)" transform="matrix(1.6074254512786865,0,0,1.6074254512786865,106.94094395540115,138.5069080635183)"><path d="M9.34 9.60L11.49 1.75L10.69 1.60L10.69 1.24L12.00 1.27L13.25 1.24L13.25 1.60L12.46 1.75L11.03 6.22L9.70 10.68L8.57 10.68L7.67 6.65L7.67 6.65Q7.49 5.90 7.33 5.14L7.33 5.14L7.33 5.14Q7.04 3.93 6.70 2.60L6.70 2.60L5.71 6.64L5.71 6.64Q5.48 7.58 5.24 8.64L5.24 8.64L5.24 8.64Q5.05 9.51 4.80 10.68L4.80 10.68L3.66 10.68L2.32 6.22L2.32 6.22Q2.04 5.28 1.64 4.03L1.64 4.03L1.64 4.03Q1.25 2.78 0.91 1.75L0.91 1.75L0.08 1.60L0.08 1.24L1.62 1.27L3.10 1.24L3.10 1.60L2.30 1.72L2.30 1.72Q2.54 2.78 2.77 3.72L2.77 3.72L2.77 3.72Q3.00 4.67 3.28 5.68L3.28 5.68L3.28 5.68Q3.55 6.68 3.82 7.66L3.82 7.66L3.82 7.66Q3.92 7.98 4.41 9.63L4.41 9.63L4.41 9.63Q4.72 8.34 5.03 7.04L5.03 7.04L5.03 7.04Q5.15 6.54 5.39 5.45L5.39 5.45L5.39 5.45Q5.52 4.89 5.96 2.82L5.96 2.82L5.96 2.82Q6.12 2.04 6.30 1.24L6.30 1.24L6.49 1.24L6.93 1.27L7.35 1.24L7.35 1.24Q7.74 3.15 8.28 5.43L8.28 5.43L9.34 9.60ZM18.60 8.52L18.97 8.81L18.97 8.81Q18.59 9.56 17.69 10.16L17.69 10.16L17.69 10.16Q17.23 10.45 16.78 10.59L16.78 10.59L16.78 10.59Q16.32 10.74 15.80 10.74L15.80 10.74L15.80 10.74Q14.24 10.74 13.36 9.78L13.36 9.78L13.36 9.78Q12.49 8.83 12.49 7.11L12.49 7.11L12.49 7.11Q12.49 5.46 13.52 4.28L13.52 4.28L13.52 4.28Q14.56 3.11 16.04 3.11L16.04 3.11L16.04 3.11Q17.32 3.11 18.03 3.81L18.03 3.81L18.03 3.81Q18.75 4.48 18.75 5.71L18.75 5.71L18.80 6.23L13.62 6.23L13.61 6.47L13.61 7.01L13.61 7.01Q13.61 8.30 14.27 9.09L14.27 9.09L14.27 9.09Q14.94 9.88 16.09 9.88L16.09 9.88L16.09 9.88Q16.54 9.88 16.92 9.77L16.92 9.77L16.92 9.77Q17.30 9.66 17.65 9.43L17.65 9.43L17.65 9.43Q17.99 9.20 18.23 8.96L18.23 8.96L18.23 8.96Q18.47 8.72 18.60 8.52L18.60 8.52ZM13.69 5.64L13.69 5.64L16.97 5.58L17.62 5.53L17.62 5.53Q17.62 4.62 17.22 4.16L17.22 4.16L17.22 4.16Q16.81 3.69 16.03 3.69L16.03 3.69L16.03 3.69Q14.98 3.69 14.27 4.48L14.27 4.48L14.27 4.48Q13.90 4.90 13.69 5.64ZM20.57 2.01L20.57 4.29L20.57 4.29Q21.09 3.67 21.64 3.39L21.64 3.39L21.64 3.39Q22.19 3.11 22.77 3.11L22.77 3.11L22.77 3.11Q24.13 3.11 24.93 4.09L24.93 4.09L24.93 4.09Q25.74 5.06 25.74 6.64L25.74 6.64L25.74 6.64Q25.74 8.35 24.66 9.57L24.66 9.57L24.66 9.57Q24.14 10.15 23.50 10.44L23.50 10.44L23.50 10.44Q22.85 10.74 22.07 10.74L22.07 10.74L22.07 10.74Q21.36 10.74 20.80 10.63L20.80 10.63L20.80 10.63Q20.23 10.53 19.55 10.53L19.55 10.53L19.36 10.53L19.10 10.60L19.46 10.06L19.46 10.06Q19.46 9.63 19.49 8.96L19.49 8.96L19.49 8.96Q19.53 8.29 19.53 8.05L19.53 8.05L19.53 3.31L19.47 0.95L18.56 0.81L18.56 0.45L19.46 0.32L19.46 0.32Q19.78 0.26 20.34 0.10L20.34 0.10L20.59 0.10L20.57 2.01ZM20.58 6.04L20.58 6.04L20.58 9.63L20.58 9.63Q20.74 9.76 21.28 9.97L21.28 9.97L21.28 9.97Q21.78 10.15 22.46 10.15L22.46 10.15L22.46 10.15Q23.37 10.15 23.98 9.25L23.98 9.25L23.98 9.25Q24.60 8.34 24.60 6.99L24.60 6.99L24.60 6.99Q24.60 5.60 24.00 4.78L24.00 4.78L24.00 4.78Q23.40 3.97 22.29 3.97L22.29 3.97L22.29 3.97Q21.49 3.97 21.04 4.53L21.04 4.53L21.04 4.53Q20.58 5.09 20.58 6.04ZM31.66 8.34L31.66 8.34L31.66 8.34Q31.66 9.34 30.77 10.04L30.77 10.04L30.77 10.04Q29.88 10.74 28.61 10.74L28.61 10.74L28.61 10.74Q27.86 10.74 27.12 10.50L27.12 10.50L27.12 10.50Q26.77 10.37 26.46 10.21L26.46 10.21L26.46 10.21Q26.14 10.04 25.82 9.83L25.82 9.83L26.36 9.13L26.82 8.42L27.12 8.58L26.83 9.35L26.83 9.35Q27.08 9.57 27.64 9.84L27.64 9.84L27.64 9.84Q28.18 10.07 28.91 10.07L28.91 10.07L28.91 10.07Q29.62 10.07 30.16 9.69L30.16 9.69L30.16 9.69Q30.69 9.31 30.69 8.71L30.69 8.71L30.69 8.71Q30.69 8.14 30.22 7.82L30.22 7.82L30.22 7.82Q29.70 7.49 28.75 7.23L28.75 7.23L28.75 7.23Q27.61 6.90 26.92 6.51L26.92 6.51L26.92 6.51Q26.24 6.11 26.24 5.17L26.24 5.17L26.24 5.17Q26.24 4.22 27.08 3.67L27.08 3.67L27.08 3.67Q27.49 3.40 28 3.25L28 3.25L28 3.25Q28.51 3.11 29.13 3.11L29.13 3.11L29.13 3.11Q29.73 3.11 30.38 3.23L30.38 3.23L30.38 3.23Q30.73 3.30 30.93 3.35L30.93 3.35L30.93 3.35Q31.12 3.41 31.30 3.48L31.30 3.48L30.76 4.91L30.48 4.81L30.50 4.17L30.50 4.17Q30.18 4.02 29.74 3.90L29.74 3.90L29.74 3.90Q29.45 3.82 29.26 3.79L29.26 3.79L29.26 3.79Q29.06 3.77 28.83 3.77L28.83 3.77L28.83 3.77Q28.06 3.77 27.64 4.06L27.64 4.06L27.64 4.06Q27.21 4.36 27.21 4.83L27.21 4.83L27.21 4.83Q27.21 5.31 27.65 5.65L27.65 5.65L27.65 5.65Q28.12 5.96 29.32 6.27L29.32 6.27L29.32 6.27Q30.51 6.59 31.07 7.08L31.07 7.08L31.07 7.08Q31.66 7.53 31.66 8.34ZM32.60 0.98L32.60 0.98L32.60 0.98Q32.60 0.68 32.80 0.48L32.80 0.48L32.80 0.48Q33.00 0.27 33.34 0.24L33.34 0.24L33.34 0.24Q33.64 0.24 33.85 0.46L33.85 0.46L33.85 0.46Q34.06 0.67 34.06 0.97L34.06 0.97L34.06 0.97Q34.06 1.27 33.87 1.47L33.87 1.47L33.87 1.47Q33.67 1.67 33.34 1.70L33.34 1.70L33.34 1.70Q33.05 1.70 32.81 1.49L32.81 1.49L32.81 1.49Q32.60 1.25 32.60 0.98ZM33.86 5.03L33.86 7.82L33.91 10.07L34.72 10.22L34.72 10.57L33.34 10.53L31.94 10.57L31.94 10.22L32.78 10.07L32.81 7.83L32.81 6.33L32.74 3.97L31.84 3.82L31.84 3.47L31.84 3.47Q32.13 3.43 32.41 3.39L32.41 3.39L32.41 3.39Q32.68 3.35 32.73 3.34L32.73 3.34L33.62 3.11L33.89 3.11L33.86 5.03ZM36.28 3.88L36.28 7.92L36.28 7.92Q36.28 8.96 36.48 9.42L36.48 9.42L36.48 9.42Q36.67 9.88 37.15 9.88L37.15 9.88L37.15 9.88Q37.48 9.88 37.75 9.71L37.75 9.71L37.75 9.71Q38.01 9.54 38.20 9.37L38.20 9.37L38.45 9.62L38.45 9.62Q38.33 9.82 38.12 10.04L38.12 10.04L38.12 10.04Q37.98 10.19 37.81 10.35L37.81 10.35L37.81 10.35Q37.39 10.74 36.70 10.74L36.70 10.74L36.70 10.74Q36.03 10.74 35.63 10.28L35.63 10.28L35.63 10.28Q35.23 9.83 35.23 9.02L35.23 9.02L35.23 3.88L34.40 3.94L34.40 3.54L35.23 3.30L35.16 1.60L36.34 1.27L36.28 3.31L38.07 3.29L37.81 3.91L36.28 3.88ZM44.79 8.52L45.16 8.81L45.16 8.81Q44.78 9.56 43.88 10.16L43.88 10.16L43.88 10.16Q43.42 10.45 42.97 10.59L42.97 10.59L42.97 10.59Q42.51 10.74 41.99 10.74L41.99 10.74L41.99 10.74Q40.43 10.74 39.55 9.78L39.55 9.78L39.55 9.78Q38.68 8.83 38.68 7.11L38.68 7.11L38.68 7.11Q38.68 5.46 39.71 4.28L39.71 4.28L39.71 4.28Q40.75 3.11 42.23 3.11L42.23 3.11L42.23 3.11Q43.51 3.11 44.22 3.81L44.22 3.81L44.22 3.81Q44.94 4.48 44.94 5.71L44.94 5.71L44.99 6.23L39.81 6.23L39.80 6.47L39.80 7.01L39.80 7.01Q39.80 8.30 40.46 9.09L40.46 9.09L40.46 9.09Q41.13 9.88 42.27 9.88L42.27 9.88L42.27 9.88Q42.73 9.88 43.11 9.77L43.11 9.77L43.11 9.77Q43.49 9.66 43.83 9.43L43.83 9.43L43.83 9.43Q44.18 9.20 44.42 8.96L44.42 8.96L44.42 8.96Q44.66 8.72 44.79 8.52L44.79 8.52ZM39.88 5.64L39.88 5.64L43.16 5.58L43.81 5.53L43.81 5.53Q43.81 4.62 43.41 4.16L43.41 4.16L43.41 4.16Q43.00 3.69 42.21 3.69L42.21 3.69L42.21 3.69Q41.17 3.69 40.46 4.48L40.46 4.48L40.46 4.48Q40.09 4.90 39.88 5.64ZM53.43 1.27L54.28 1.27L55.94 1.24L55.94 1.60L55.14 1.74L55.15 3.72L55.21 8.09L55.29 9.25L55.29 9.25Q55.29 9.90 55.43 10.07L55.43 10.07L56.24 10.22L56.24 10.57L54.67 10.53L53.22 10.57L53.22 10.22L54.02 10.07L54.11 8.09L54.02 1.76L50.92 10.57L49.98 10.57L46.87 1.76L46.84 4.87L46.84 8.48L46.84 8.48Q46.84 9.96 46.86 10.07L46.86 10.07L47.68 10.22L47.68 10.57L46.41 10.53L44.99 10.57L44.99 10.22L45.81 10.07L45.81 10.07Q45.88 9.88 45.88 8.48L45.88 8.48L45.88 8.48Q45.88 8.08 45.93 6.87L45.93 6.87L45.93 6.87Q45.98 5.67 45.98 4.87L45.98 4.87L46.00 2.81L45.97 2.28L45.97 2.28Q45.97 1.75 45.90 1.73L45.90 1.73L45.22 1.60L45.22 1.24L46.93 1.27L47.85 1.27L50.67 9.40L53.43 1.27ZM61.50 6.64L61.50 6.64L60.81 6.61L60.81 6.61Q60.15 6.61 59.57 6.79L59.57 6.79L59.57 6.79Q58.99 6.96 58.56 7.24L58.56 7.24L58.56 7.24Q58.17 7.53 57.97 7.87L57.97 7.87L57.97 7.87Q57.76 8.21 57.76 8.65L57.76 8.65L57.76 8.65Q57.76 9.13 58.10 9.51L58.10 9.51L58.10 9.51Q58.47 9.88 59.05 9.88L59.05 9.88L59.05 9.88Q60.18 9.88 60.81 9.00L60.81 9.00L60.81 9.00Q61.14 8.54 61.32 7.95L61.32 7.95L61.32 7.95Q61.50 7.35 61.50 6.64ZM61.49 8.79L61.49 8.79L61.49 8.79Q60.86 10.00 60.16 10.37L60.16 10.37L60.16 10.37Q59.46 10.74 58.81 10.74L58.81 10.74L58.81 10.74Q57.83 10.74 57.23 10.15L57.23 10.15L57.23 10.15Q56.63 9.57 56.63 8.78L56.63 8.78L56.63 8.78Q56.63 7.64 57.83 6.84L57.83 6.84L57.83 6.84Q59.04 6.04 60.93 6.04L60.93 6.04L61.56 6.04L61.56 5.58L61.56 5.58Q61.56 4.60 61.16 4.19L61.16 4.19L61.16 4.19Q60.77 3.77 59.93 3.77L59.93 3.77L59.93 3.77Q59.26 3.77 58.66 3.99L58.66 3.99L58.03 4.24L58.06 4.98L57.78 5.08L57.16 3.67L57.16 3.67Q57.45 3.54 58.14 3.32L58.14 3.32L58.14 3.32Q58.84 3.11 60.10 3.11L60.10 3.11L60.10 3.11Q61.14 3.11 61.81 3.61L61.81 3.61L61.81 3.61Q62.48 4.11 62.48 4.96L62.48 4.96L62.48 8.22L62.48 8.22Q62.48 9.01 62.55 9.44L62.55 9.44L62.55 9.44Q62.62 9.70 62.70 9.85L62.70 9.85L62.70 9.85Q62.73 9.94 62.85 10.06L62.85 10.06L63.40 10.22L63.40 10.58L62.67 10.56L62.27 10.54L62.27 10.54Q62.15 10.54 62.03 10.54L62.03 10.54L62.03 10.54Q61.92 10.54 61.77 10.57L61.77 10.57L61.77 10.57Q61.65 10.57 61.58 10.04L61.58 10.04L61.58 10.04Q61.55 9.78 61.54 9.64L61.54 9.64L61.54 9.64Q61.49 9.11 61.49 8.79ZM64.96 10.41L64.96 10.41L64.96 11.35L65.01 13.59L65.97 13.75L65.97 14.10L64.44 14.06L63.05 14.10L63.05 13.75L63.88 13.59L63.91 11.35L63.91 6.29L63.85 3.93L62.95 3.78L62.95 3.43L62.95 3.43Q63.21 3.43 63.35 3.41L63.35 3.41L63.35 3.41Q63.48 3.40 63.88 3.32L63.88 3.32L63.88 3.32Q64.27 3.25 64.77 3.11L64.77 3.11L65.07 3.11L64.95 4.49L64.95 4.49Q65.20 4.15 65.48 3.88L65.48 3.88L65.48 3.88Q65.76 3.61 66.07 3.44L66.07 3.44L66.07 3.44Q66.38 3.28 66.65 3.19L66.65 3.19L66.65 3.19Q66.93 3.11 67.26 3.11L67.26 3.11L67.26 3.11Q68.56 3.11 69.34 4.09L69.34 4.09L69.34 4.09Q70.12 5.08 70.12 6.66L70.12 6.66L70.12 6.66Q70.12 8.34 69.08 9.54L69.08 9.54L69.08 9.54Q68.56 10.14 67.89 10.44L67.89 10.44L67.89 10.44Q67.22 10.74 66.37 10.74L66.37 10.74L66.37 10.74Q66.04 10.74 65.64 10.64L65.64 10.64L65.64 10.64Q65.45 10.59 65.28 10.54L65.28 10.54L65.28 10.54Q65.10 10.49 64.96 10.41ZM64.96 6.49L64.96 9.58L65.67 9.93L65.67 9.93Q66.16 10.15 66.77 10.15L66.77 10.15L66.77 10.15Q67.71 10.15 68.34 9.23L68.34 9.23L68.34 9.23Q68.65 8.77 68.82 8.20L68.82 8.20L68.82 8.20Q68.99 7.64 68.99 6.97L68.99 6.97L68.99 6.97Q68.99 5.56 68.39 4.77L68.39 4.77L68.39 4.77Q67.78 3.97 66.66 3.97L66.66 3.97L66.66 3.97Q65.83 3.97 65.39 4.61L65.39 4.61L65.39 4.61Q64.96 5.25 64.96 6.49L64.96 6.49ZM72.09 10.41L72.09 10.41L72.09 11.35L72.13 13.59L73.10 13.75L73.10 14.10L71.56 14.06L70.18 14.10L70.18 13.75L71.00 13.59L71.04 11.35L71.04 6.29L70.98 3.93L70.07 3.78L70.07 3.43L70.07 3.43Q70.33 3.43 70.47 3.41L70.47 3.41L70.47 3.41Q70.61 3.40 71.00 3.32L71.00 3.32L71.00 3.32Q71.39 3.25 71.89 3.11L71.89 3.11L72.19 3.11L72.07 4.49L72.07 4.49Q72.32 4.15 72.60 3.88L72.60 3.88L72.60 3.88Q72.88 3.61 73.19 3.44L73.19 3.44L73.19 3.44Q73.50 3.28 73.78 3.19L73.78 3.19L73.78 3.19Q74.05 3.11 74.38 3.11L74.38 3.11L74.38 3.11Q75.68 3.11 76.46 4.09L76.46 4.09L76.46 4.09Q77.24 5.08 77.24 6.66L77.24 6.66L77.24 6.66Q77.24 8.34 76.21 9.54L76.21 9.54L76.21 9.54Q75.68 10.14 75.02 10.44L75.02 10.44L75.02 10.44Q74.35 10.74 73.49 10.74L73.49 10.74L73.49 10.74Q73.17 10.74 72.76 10.64L72.76 10.64L72.76 10.64Q72.57 10.59 72.40 10.54L72.40 10.54L72.40 10.54Q72.23 10.49 72.09 10.41ZM72.09 6.49L72.09 9.58L72.80 9.93L72.80 9.93Q73.29 10.15 73.90 10.15L73.90 10.15L73.90 10.15Q74.84 10.15 75.47 9.23L75.47 9.23L75.47 9.23Q75.78 8.77 75.95 8.20L75.95 8.20L75.95 8.20Q76.11 7.64 76.11 6.97L76.11 6.97L76.11 6.97Q76.11 5.56 75.51 4.77L75.51 4.77L75.51 4.77Q74.91 3.97 73.79 3.97L73.79 3.97L73.79 3.97Q72.95 3.97 72.52 4.61L72.52 4.61L72.52 4.61Q72.09 5.25 72.09 6.49L72.09 6.49ZM77.92 0.98L77.92 0.98L77.92 0.98Q77.92 0.68 78.13 0.48L78.13 0.48L78.13 0.48Q78.33 0.27 78.66 0.24L78.66 0.24L78.66 0.24Q78.96 0.24 79.17 0.46L79.17 0.46L79.17 0.46Q79.39 0.67 79.39 0.97L79.39 0.97L79.39 0.97Q79.39 1.27 79.19 1.47L79.19 1.47L79.19 1.47Q79.00 1.67 78.66 1.70L78.66 1.70L78.66 1.70Q78.38 1.70 78.14 1.49L78.14 1.49L78.14 1.49Q77.92 1.25 77.92 0.98ZM79.19 5.03L79.19 7.82L79.23 10.07L80.04 10.22L80.04 10.57L78.66 10.53L77.27 10.57L77.27 10.22L78.10 10.07L78.14 7.83L78.14 6.33L78.07 3.97L77.16 3.82L77.16 3.47L77.16 3.47Q77.46 3.43 77.73 3.39L77.73 3.39L77.73 3.39Q78.01 3.35 78.05 3.34L78.05 3.34L78.95 3.11L79.21 3.11L79.19 5.03ZM87.21 5.33L87.21 7.82L87.28 10.07L88.11 10.22L88.11 10.57L86.67 10.53L86.12 10.57L86.12 10.22L86.14 10.07L86.14 6.04L86.14 6.04Q86.14 4.98 85.76 4.47L85.76 4.47L85.76 4.47Q85.38 3.97 84.51 3.97L84.51 3.97L84.51 3.97Q83.59 3.97 83.06 4.71L83.06 4.71L83.06 4.71Q82.53 5.46 82.53 6.68L82.53 6.68L82.53 7.82L82.58 10.07L83.39 10.22L83.39 10.57L82.01 10.53L80.62 10.57L80.62 10.22L81.44 10.07L81.49 7.83L81.49 6.29L81.41 3.93L80.51 3.78L80.51 3.43L80.51 3.43Q80.78 3.43 80.93 3.41L80.93 3.41L80.93 3.41Q81.07 3.40 81.41 3.32L81.41 3.32L81.41 3.32Q81.87 3.25 82.32 3.11L82.32 3.11L82.62 3.11L82.50 4.59L82.50 4.59Q83.08 3.90 83.71 3.50L83.71 3.50L83.71 3.50Q84.33 3.11 85.05 3.11L85.05 3.11L85.05 3.11Q86.00 3.11 86.60 3.72L86.60 3.72L86.60 3.72Q87.21 4.33 87.21 5.33L87.21 5.33ZM91.51 3.68L91.51 3.68L91.51 3.68Q90.62 3.68 90.08 4.28L90.08 4.28L90.08 4.28Q89.54 4.87 89.54 5.86L89.54 5.86L89.54 5.86Q89.54 6.78 90.09 7.37L90.09 7.37L90.09 7.37Q90.64 7.96 91.51 7.96L91.51 7.96L91.51 7.96Q92.33 7.96 92.91 7.36L92.91 7.36L92.91 7.36Q93.47 6.74 93.47 5.83L93.47 5.83L93.47 5.83Q93.47 5.31 93.35 4.95L93.35 4.95L93.35 4.95Q93.23 4.59 92.94 4.27L92.94 4.27L92.94 4.27Q92.42 3.68 91.51 3.68ZM88.41 5.81L88.41 5.81L88.41 5.81Q88.41 4.68 89.33 3.90L89.33 3.90L89.33 3.90Q90.24 3.11 91.51 3.11L91.51 3.11L91.51 3.11Q92.10 3.11 92.55 3.25L92.55 3.25L93.56 3.42L95.21 3.47L95.22 3.68L95.22 3.80L95.02 3.88L95.02 3.88Q94.84 3.97 93.78 3.97L93.78 3.97L93.78 3.97Q94.62 4.72 94.62 5.80L94.62 5.80L94.62 5.80Q94.62 6.89 93.69 7.71L93.69 7.71L93.69 7.71Q92.77 8.53 91.51 8.53L91.51 8.53L91.51 8.53Q90.66 8.53 90.16 8.33L90.16 8.33L90.16 8.33Q90.15 8.45 90.02 8.79L90.02 8.79L90.02 8.79Q89.62 9.90 89.59 9.91L89.59 9.91L90.02 9.78L90.02 9.78Q90.26 9.71 90.69 9.66L90.69 9.66L90.69 9.66Q91.13 9.60 91.73 9.60L91.73 9.60L91.73 9.60Q93.04 9.60 93.98 10.15L93.98 10.15L93.98 10.15Q94.91 10.69 94.91 11.74L94.91 11.74L94.91 11.74Q94.91 12.77 93.80 13.49L93.80 13.49L93.80 13.49Q92.69 14.20 91.22 14.20L91.22 14.20L91.22 14.20Q89.93 14.20 89.09 13.64L89.09 13.64L89.09 13.64Q88.24 13.08 88.24 12.33L88.24 12.33L88.24 12.33Q88.24 11.90 88.44 11.61L88.44 11.61L88.44 11.61Q88.63 11.32 88.85 11.13L88.85 11.13L89.23 11.39L89.23 11.39Q89.14 11.51 89.10 11.69L89.10 11.69L89.06 12.07L89.06 12.07Q89.06 12.49 89.78 12.99L89.78 12.99L89.78 12.99Q90.14 13.23 90.60 13.34L90.60 13.34L90.60 13.34Q91.07 13.46 91.69 13.46L91.69 13.46L91.69 13.46Q92.54 13.46 93.16 13.10L93.16 13.10L93.16 13.10Q93.77 12.74 93.77 11.94L93.77 11.94L93.77 11.94Q93.77 11.16 92.73 10.71L92.73 10.71L92.73 10.71Q92.30 10.52 91.59 10.52L91.59 10.52L91.59 10.52Q90.73 10.52 89.42 10.83L89.42 10.83L88.83 10.18L89.12 9.51L89.12 9.51Q89.23 9.27 89.36 8.89L89.36 8.89L89.36 8.89Q89.49 8.51 89.61 8.09L89.61 8.09L89.61 8.09Q89.37 7.97 89.23 7.83L89.23 7.83L89.23 7.83Q88.41 7.11 88.41 5.81Z"></path></g><defs data-v-fde0c5aa=""><linearGradient data-v-fde0c5aa="" gradientTransform="rotate(25)" id="b4d0e5e3-4c9f-49d5-b7f8-895f66783b60" x1="0%" y1="0%" x2="100%" y2="0%"><stop data-v-fde0c5aa="" offset="0%" stop-color="#2A13BD" stop-opacity="1"></stop><stop data-v-fde0c5aa="" offset="100%" stop-color="#3B3B3B" stop-opacity="1"></stop></linearGradient></defs><g data-v-fde0c5aa="" id="64194fd8-6951-4a74-88f5-16d69c70385f" stroke="none" fill="url(#b4d0e5e3-4c9f-49d5-b7f8-895f66783b60)" transform="matrix(0.6261956095695496,0,0,0.6261956095695496,36.24157829775351,117.67988662291833)"><path d="M92.271 72.917c-.014-1.931-.028-3.862-.045-5.792-.005-.432-.376-.846-.826-.826-1.684.077-3.422.069-5.146.144a.577.577 0 0 0-.063-.292c-.568-1.059-1.618-1.923-2.415-2.818-.786-.884-1.548-1.797-2.351-2.667 1.785.104 3.646.183 5.181-.258.26-.075.529-.3.58-.58.289-1.594-.159-3.494-.307-5.105l-.574-6.269c-.074-.799-1.028-1.008-1.458-.585a.718.718 0 0 0-.445-.205c-1.77-.144-3.603.054-5.403.215 0-.009.003-.018.003-.028l-.003-4.676a.802.802 0 0 0-.023-.182c.014-.366-.212-.732-.684-.716-8.81.293-17.62.523-26.434.56a35.578 35.578 0 0 0-.15-2.933c3.369.096 6.94.415 10.279.069 1.835-.19 1.993-1.183 2.056-2.866.137-3.671.026-7.409-.379-11.06-.068-.608-.675-.858-1.118-.719-3.293-.897-7.157-.735-10.54-.813-3.548-.083-7.222-.122-10.731.462a.491.491 0 0 0-.173.064c-.248-.166-.635-.125-.705.238-.791 4.085-1.083 9.542.467 13.481.141.36.513.486.808.394 2.654.842 5.822.711 8.666.726.034.991.03 1.975.001 2.955-8.423-.016-16.888-.466-25.296-.153a.56.56 0 0 0-.36.142c-.833-.129-1.672-.192-2.52-.102-.338.036-.528.247-.586.485-.387.53-.384 1.239-.389 1.893-.006.858.078 1.708.21 2.556l.002.006-.066.001c-2.676.049-5.364.083-8.026.4a.515.515 0 0 0-.807.527c.347 2.011.586 4.008.655 6.05.06 1.796-.288 3.646-.105 5.417.038.369.309.563.587.563-.146.339.036.832.485.799a265.15 265.15 0 0 0 2.375-.185c-1.343 1.986-2.612 4.071-3.845 6.124-.112.188-.134.485 0 .669l.003.005a8.617 8.617 0 0 1-.869.585 82.165 82.165 0 0 0-5.341.27.444.444 0 0 0 0 .888c.125.011.25.019.374.03-.042 2.707.003 5.417.014 8.125.001.421.377.864.826.827 3.541-.288 7.082-.579 10.62-.883.441-.037.809-.341.813-.812l.063-7.709a.79.79 0 0 0-.781-.78c-1.838.003-3.676-.002-5.513.025.144-.08.287-.163.429-.248.156-.014.313-.073.404-.188.041-.05.079-.102.119-.151.313-.218.608-.453.867-.711a.32.32 0 0 0 .023-.46c1.207-1.639 2.324-3.391 3.214-5.188a.727.727 0 0 0 .06-.535c1.313-.102 2.626-.193 3.946-.244 1.015-.039 2.05-.004 3.085.016.019.031.033.062.062.091 1.173 1.199 2.349 2.395 3.434 3.675.928 1.097 1.741 2.611 2.934 3.435-1.437.104-2.946.089-4.329.489-.432.125-.538.491-.429.806a.448.448 0 0 0-.106.161c-.827 2.317-.318 5.258.023 7.645.052.354.453.571.772.587 1.582.079 3.164.11 4.748.079 1.061-.022 2.403.148 3.417-.204 1.99-.689 1.241-3.819 1.239-5.41-.002-1.415.616-4.131-1.352-4.436-.966-.15-2.106.059-3.153.195a.49.49 0 0 0 .078-.44c-.442-1.408-1.806-2.55-2.816-3.578a46.112 46.112 0 0 0-3.295-3.083c.957-.004 1.907-.05 2.831-.21.288-.049.427-.273.448-.516a.6.6 0 0 0 .172-.448c-.014-3.62.467-7.303.342-10.902-.017-.496-.503-.748-.896-.652a.508.508 0 0 0-.398-.417c-2.035-.421-4.268-.218-6.386-.125.007-.035.019-.066.017-.105a15.018 15.018 0 0 1 .076-2.5c.041-.35.104-.681.117-1.007.866.046 1.724-.045 2.575-.199 8.313.753 16.796.523 25.15.455-.06 1.345-.134 2.69-.168 4.048-2.267.07-4.533.214-6.791.421a.566.566 0 0 0-.525.593c-.012.045-.028.088-.028.139.019 3.241-.042 7.323 1.014 10.403a.647.647 0 0 0 .905.401c1.518.113 3.045.19 4.57.232a.754.754 0 0 0-.006.173 70.18 70.18 0 0 0 .708 6.434c-.957.072-1.893.2-2.77.445-.403.113-.546.639-.348.954a.412.412 0 0 0-.08.087c-.033-.225-.064-.45-.105-.673-.082-.444-.856-.466-.92 0-.403 2.972-.283 6.038-.428 9.032-.022.44.377.766.787.787l6.365.312c1.107.054 3.333.667 4.281-.163.832-.726.34-2.348.269-3.251-.182-2.3-.364-4.599-.549-6.897-.032-.403-.331-.801-.779-.778-1.527.075-3.188.025-4.816.092.07-2.116.016-4.268-.113-6.38a.948.948 0 0 0-.023-.146c.25.002.501.008.751.008 2.071.003 4.302.172 6.327-.311a.612.612 0 0 0 .841-.52c.214-1.777.292-3.57.284-5.36-.006-1.56.167-3.285-.4-4.748l-.002-.004c.287-.305.178-.924-.282-1.041-2.212-.566-4.717-.325-6.992-.275.331-1.291.509-2.652.57-4.027 8.587-.051 17.177-.2 25.757-.536l-.002 4.125c0 .05.006.095.014.14-.07.004-.14.01-.208.015-1.891.112-3.884.052-5.741.482-.302-.313-.897-.219-.928.348-.162 2.893-.048 5.801.044 8.696.037 1.198-.16 2.472 1.146 2.961.275.102.591.139.921.146-.888 1.123-1.746 2.272-2.605 3.417-.666.886-1.369 1.671-1.195 2.831.01.065.041.128.083.187-.985.052-1.959.164-2.849.463a.6.6 0 0 0-.229.151c-.086-.614-.928-.573-1.008.048-.253 1.981-.326 4.005-.345 6.001-.008.827-.237 2.161.504 2.789.826.697 2.466.334 3.424.333l6.122-.008c.312-.001.712-.244.762-.581.247-1.654.416-3.312.434-4.985.011-1.077.3-3.058-.515-3.949-.764-.836-2.336-.417-3.301-.36-.622.037-1.271.045-1.925.06l-.003-.014-.001.014h-.003l.014-.075c.028-.144.061-.337.104-.471.24-.743.88-1.349 1.365-1.956.927-1.16 1.871-2.31 2.761-3.5a.593.593 0 0 0 .113-.48c.065-.001.133-.005.196-.005l4.046.002c.481 0 .987.021 1.508.048a.453.453 0 0 0 .051.396c.694 1.097 1.52 2.13 2.342 3.133.643.783 1.296 1.715 2.088 2.4a24.66 24.66 0 0 0-2.259.275c-.674.117-.649.881-.246 1.25a111.665 111.665 0 0 0-.243 7.295c0 .442.359.76.784.785 1.826.106 3.651.214 5.477.321.971.057 2.721.526 3.537-.254.792-.754.457-2.341.449-3.283zm-80.647-2.859c.005.006.005.013.009.018a1155.91 1155.91 0 0 0 2.991 4.003l-4.044-4.05c.348.012.696.02 1.044.029zm-1.595-.056a.288.288 0 0 0 .042.293l3 3.806c-1.517-1.387-3.035-2.772-4.547-4.165-.003-.003-.007-.004-.01-.006.505.03 1.009.05 1.515.072zm-1.589.642a3059.96 3059.96 0 0 0 2.82 3.477c-.937-.865-1.873-1.733-2.809-2.598-.003-.294-.006-.586-.011-.879zm.025 2.038c.302.523.64 1.09 1.003 1.629a53.576 53.576 0 0 0-.992-.789c-.001-.281-.007-.56-.011-.84zm.013 2.025c.2.288.403.571.616.844-.203-.17-.41-.337-.615-.5l-.001-.344zm.005 2.334L8.48 75.47l1.55 1.447-1.547.124zm2.197-.177c-.531-.679-1.062-1.358-1.585-2.044-.001-.001-.239-.289-.487-.582.593.479 1.479 1.023 1.787 1.278.267.297.541.549.82.743.183.171.364.345.544.518l-1.079.087zm1.626-.131a27.863 27.863 0 0 1-3.188-3.963c1.389 1.292 2.779 2.584 4.16 3.885l-.972.078zm1.594-.128a.293.293 0 0 0-.053-.106 662.021 662.021 0 0 0-3.074-3.8l4.16 3.823-1.033.083zm1.642-.132a.286.286 0 0 0-.061-.165c-.711-.906-1.421-1.812-2.133-2.717l2.818 2.833c-.208.015-.417.033-.624.049zm1.937-.156l-.416.034a484.352 484.352 0 0 0-3.226-4.319 50.356 50.356 0 0 1 3.649 3.742l-.007.543zm.027-1.662l-2.186-3.218a28.822 28.822 0 0 1 2.202 2.245l-.016.973zm.074-4.522l-.034 2.074-1.12-2.08 1.154.006zm-1.924-.009l.825 1.517a29.267 29.267 0 0 0-1.699-1.525l.874.008zm-2.012-.022c.616.897 1.23 1.793 1.847 2.689a52.121 52.121 0 0 0-2.979-2.709c.377.007.754.015 1.132.02zm15.766-.184a56.018 56.018 0 0 0 2.287 3.106l-3.413-3.082c.372.008.748-.003 1.126-.024zm-1.904.116l2.918 3.584a47.525 47.525 0 0 0-2.692-2.154 14.2 14.2 0 0 0-.226-1.43zm.309 2.382l1.515 1.78a36.13 36.13 0 0 0-1.473-1.131 34.76 34.76 0 0 0-.042-.649zm.113 1.977c.276.353.554.704.83 1.055-.269-.216-.538-.431-.805-.648l-.025-.407zm.142 1.81a20.72 20.72 0 0 1-.084-.912c.356.312.712.625 1.066.938a80.982 80.982 0 0 1-.982-.026zm1.963.041c-.508-.67-1.019-1.339-1.534-2.004.819.638 1.61 1.306 2.375 2.01-.281 0-.561-.002-.841-.006zm1.716.001c-.792-.93-1.582-1.862-2.369-2.796a45.662 45.662 0 0 1 3.041 2.781c-.223.006-.448.012-.672.015zm1.501-.036l-3.066-3.778c1.384 1.25 2.767 2.502 4.151 3.75-.313.049-.686.022-1.085.028zm1.657-.307a54.41 54.41 0 0 1-3.235-3.856l3.482 3.331a1.133 1.133 0 0 1-.247.525zm-1.772-4.756l2.023 1.807c.018.379.053.786.069 1.188l-2.092-2.995zm2.098.123a17.193 17.193 0 0 0-.383-.769c.05.064.102.122.151.19a.323.323 0 0 0 .253.139c-.005.147-.012.295-.021.44zm-.081-1.807c.063.053.095.245.108.507a5.3 5.3 0 0 0-.577-.608c.212.001.383.028.469.101zm-2.209.114c.12-.01.324-.045.56-.083.499.75.935 1.519 1.306 2.328l-2.455-2.191c.197-.02.395-.039.589-.054zm1.082 3.896l-3.794-3.617c.392-.036.782-.08 1.171-.124.874 1.248 1.748 2.495 2.623 3.741zM21.271 49.217a73.22 73.22 0 0 1 4 5.658 105.06 105.06 0 0 0-5.206-5.64l1.206-.018zm-2.291.03l3.36 4.337a124.085 124.085 0 0 0-4.491-4.332c.378 0 .754-.002 1.131-.005zm-2.238-.008c.75.968 1.503 1.934 2.257 2.9a83.321 83.321 0 0 0-2.943-2.912c.229.006.458.008.686.012zm-2.998-.117c.393.028.787.043 1.18.061a458.887 458.887 0 0 0 5.523 7.257l-2.279-2.17c-1.292-1.231-2.528-2.567-3.996-3.589a29.687 29.687 0 0 0-.428-1.559zm.414 11.172c.015-.027.034-.048.046-.077.138-.353.25-.721.343-1.098.26.322.542.629.85.924-.414.082-.829.159-1.239.251zm1.622-.327c-.363-.429-.837-1.067-1.12-1.356l.021-.106c.556.171 1.255.791 1.83 1.34-.244.04-.488.078-.731.122zm-.898-4.571a22.132 22.132 0 0 0-.067-.99c.846.986 1.708 1.96 2.581 2.923a197.068 197.068 0 0 1-2.514-1.933zm1.274 2.368a12.773 12.773 0 0 0-1.292-.752c.013-.213.021-.428.025-.643.433.458.854.923 1.267 1.395zm-1.413.383c.014-.088.025-.179.037-.268.475.387.989.814 1.396 1.19-.428-.329-.965-.651-1.433-.922zm2.358 1.607c-.737-.796-1.5-1.558-2.269-2.327l.01-.119c.311.236.767.608.795.629.75.529 1.426 1.08 2.071 1.723-.204.028-.405.064-.607.094zm1.156-.16a.27.27 0 0 0-.051-.124 49.356 49.356 0 0 0-1.872-2.266c.991.765 1.989 1.52 2.994 2.267-.357.036-.714.078-1.071.123zm1.677-.183a.264.264 0 0 0-.065-.234 140.391 140.391 0 0 1-3.854-4.281l5.188 4.413c-.422.029-.845.063-1.269.102zm1.907-.15a.275.275 0 0 0-.078-.308c-2.365-2.265-5.214-4.498-7.232-7.169 1.358 1.07 2.566 2.389 3.802 3.559l4.096 3.876-.588.042zm1.526-.103a347.784 347.784 0 0 1-5.655-7.363c2.314 2.347 4.499 4.818 6.661 7.312-.337.013-.672.03-1.006.051zm1.908-.075c-1.84-2.367-3.679-4.736-5.521-7.102a123.5 123.5 0 0 1 6.792 7.123c-.421-.021-.845-.026-1.271-.021zm2.161.092a.354.354 0 0 0-.061-.123c-1.49-1.923-2.973-3.853-4.452-5.784a130.298 130.298 0 0 1 4.687 5.504c.258.32.744-.089.555-.428a74.306 74.306 0 0 0-3.001-4.925c.866.955 1.732 1.909 2.598 2.866.122.134.265.139.382.078.058 1.003.142 1.995.244 2.95a11.36 11.36 0 0 0-.952-.138zm1.172-10.272c-.083.349-.149.705-.21 1.064a6.019 6.019 0 0 0-.822-.882 11.35 11.35 0 0 0 1.032-.182zm-.611 1.841a.384.384 0 0 0 .266.172c-.018.148-.041.294-.057.443l-.735-1.333c.193.219.374.453.526.718zm-1.861-1.531l1.093 1.971-1.997-1.944c.302-.003.603-.012.904-.027zm1.959 3.878a33.79 33.79 0 0 0 0 2.251 30.052 30.052 0 0 0-1.714-3.199c-.197-.316-1.231-1.555-1.801-2.489l3.515 3.437zm-4.591-3.859c.134.381.443.727.746 1.136a32.955 32.955 0 0 1 2.202 3.4l-4.14-4.553c.395.003.792.01 1.192.017zm28.642-10.97c-.002-.002-.002-.005-.004-.006l-8.527-9.791c3.43 3.061 6.554 6.541 9.735 9.819l-1.204-.022zm2.111.031c-.009-.015-.014-.03-.027-.044a218.55 218.55 0 0 1-7.297-8.424c2.818 2.76 5.57 5.583 8.251 8.478-.309-.005-.618-.006-.927-.01zm1.802.016a.37.37 0 0 0-.07-.122 224.128 224.128 0 0 1-7.201-8.761 266.05 266.05 0 0 1 8.327 8.893l-1.056-.01zm2.001.024c-2.152-2.553-4.172-5.204-6.134-7.9 2.381 2.661 4.763 5.322 7.143 7.984-.398-.034-.753-.067-1.009-.084zm2.128.164c-1.381-1.993-2.767-3.982-4.148-5.973a378.389 378.389 0 0 0 5.13 5.978 9.522 9.522 0 0 1-.982-.005zm1.8-.18c-.82-2.033-1.984-3.849-3.245-5.605l3.72 4.512c-.064.495-.202.906-.475 1.093zm.432-4.894c.004.306.013.612.013.917 0 .245.025.603.048 1.002-1.093-2.365-2.794-4.369-4.322-6.488l4.236 4.551c.008.009.017.011.025.018zm-.297-6.73c.041.667.081 1.335.119 2.003a1.304 1.304 0 0 0-.047-.032.296.296 0 0 0-.304-.036 21.207 21.207 0 0 0-2.18-1.939c.811.036 1.618.045 2.412.004zm.145 3.411c.014.016.031.025.048.038.031.641.056 1.284.077 1.927l-2.791-4.541a20.829 20.829 0 0 1 2.666 2.576zm-4.076-3.506l2.276 3.697c-1.18-1.267-2.359-2.533-3.536-3.802.421.038.84.074 1.26.105zm-2.453-.214c1.618 3.06 4.182 5.535 5.772 8.582l-7.196-8.706c.473.038.948.08 1.424.124zm-3.733-.259c.441.012.887.035 1.334.064 2.102 3.658 5.121 6.733 7.106 10.441a353.92 353.92 0 0 1-8.795-10.512c.119.003.237.003.355.007zm-1.263-.025c2.06 2.977 4.128 5.945 6.196 8.915-2.662-2.973-5.322-5.947-7.982-8.921.596-.002 1.191 0 1.786.006zm-2.749-.004a330.403 330.403 0 0 0 4.368 6.067 261.454 261.454 0 0 0-5.947-6.062c.526-.001 1.053-.002 1.579-.005zm-2.586.005a233.426 233.426 0 0 0 4.163 5.377 236.771 236.771 0 0 0-5.538-5.393c.458.009.917.014 1.375.016zm-2.354-.041c.012.025.02.051.039.075a212.333 212.333 0 0 0 3.174 3.949 60.898 60.898 0 0 0-4.62-4.087c.468.027.937.047 1.407.063zm-1.713.747l3.888 4.459c-1.294-1.31-2.589-2.62-3.879-3.934l-.009-.525zm.026 1.624c1.373 1.776 2.749 3.55 4.126 5.323-1.369-1.421-2.736-2.844-4.106-4.265-.008-.352-.014-.705-.02-1.058zm.077 2.846c-.01-.242-.024-.485-.032-.727 1.733 2.06 3.426 4.145 4.945 6.359a113.722 113.722 0 0 1-4.884-5.609c-.008-.011-.019-.015-.029-.023zm.051.977a285.323 285.323 0 0 0 2.955 4.525l-2.771-2.735a31.19 31.19 0 0 1-.184-1.79zm.574 6a15.89 15.89 0 0 0-.06-1.342c.407.447.841.84 1.334 1.192-.43.033-.857.076-1.274.15zm2.213-.198a10.63 10.63 0 0 1-2.246-2.94l2.97 2.931c-.242-.003-.483.002-.724.009zm1.638.007a288.185 288.185 0 0 1-2.241-3.359 125.169 125.169 0 0 0 3.044 3.391 53.332 53.332 0 0 0-.803-.032zm1.922.086a51.156 51.156 0 0 0-2.401-3.523c1.141 1.189 2.281 2.38 3.423 3.568a60.876 60.876 0 0 1-1.022-.045zm1.21 11.718l4.172 5.771-5.513-5.778 1.341.007zm-2.218-.011c1.967 2.438 3.902 4.89 5.63 7.494-2.382-2.499-4.764-4.997-7.141-7.5l1.511.006zm-2.781-.012l.43.002c1.783 2.379 3.572 4.752 5.36 7.127-2.011-2.025-3.868-4.196-5.695-6.399-.033-.243-.06-.487-.095-.73zm.241 1.869a3803.54 3803.54 0 0 0 3.381 4.81 127.98 127.98 0 0 0-3.203-3.306c-.057-.501-.117-1.003-.178-1.504zm.815 7.399c.015-.755-.059-1.526-.159-2.295.46.756.92 1.511 1.385 2.264-.409.013-.817.018-1.226.031zm1.537-.038c-.427-.855-1.134-2.336-1.527-2.343.48.008 1.575 1.359 2.348 2.322-.275.008-.549.013-.821.021zm1.178-.029c-.146-.18-.44-.556-.566-.702-.754-.872-1.627-1.668-2.441-2.484-.083-.559-.167-1.114-.23-1.657l-.003-.033c1.041 1.414 1.843 2.933 2.877 4.345.198.271.317.437.382.53l-.019.001zm.39-.009a31.273 31.273 0 0 0-1.746-3.059 126.65 126.65 0 0 1 2.784 3.032l-1.038.027zm.516 9.873a57.014 57.014 0 0 0 3.798 5.198 47.974 47.974 0 0 1-5.067-5.324c.416.065.84.104 1.269.126zm1.973 5.181a5974.388 5974.388 0 0 0-3.729-3.378 23.592 23.592 0 0 0-.151-1.73c1.29 1.705 2.586 3.406 3.88 5.108zm-3.68-1.718a27.89 27.89 0 0 0 1.864 2.551 37.256 37.256 0 0 1-1.87-1.521c.006-.343.008-.687.006-1.03zm-.103 3.846c.023-.521.045-1.047.064-1.574l1.153 1.637c-.406-.02-.811-.041-1.217-.063zm1.618.083c-.51-.766-1.022-1.532-1.534-2.298l.001-.024a43.753 43.753 0 0 0 3.048 2.401l-1.515-.079zm2.335.12l-.026-.001a.23.23 0 0 0-.058-.128 30.974 30.974 0 0 1-3.383-4.396l5.156 4.697c-.797-.081-1.487-.161-1.689-.172zm2.316.232c.06-.083.072-.192-.009-.3l-2.083-2.748a49.414 49.414 0 0 0 3.657 3.154 25.342 25.342 0 0 1-1.565-.106zm2.457.012c-.017.025-.065.044-.129.059a.277.277 0 0 0-.075-.187 55.723 55.723 0 0 1-4.202-5.082l4.265 4.552c.07.075.161.095.248.083-.003.255-.032.459-.107.575zm.044-1.482a111.773 111.773 0 0 1-3.185-4.583 104.01 104.01 0 0 1 2.989 3.311c.072.413.146.858.196 1.272zm-.487-3.73a58.049 58.049 0 0 0-.63-1.245c.179.137.369.269.563.398.021.282.044.565.067.847zm-.229-2.877l.086 1.089a7.96 7.96 0 0 1-1.12-1.007c.348-.031.693-.059 1.034-.082zm-2.001.168a55.999 55.999 0 0 1 1.726 3.246 107.34 107.34 0 0 0-2.965-3.146c.414-.03.828-.064 1.239-.1zm-.206 3.418l-3.035-3.23c.302-.002.604-.009.909-.022a114.103 114.103 0 0 0 2.126 3.252zm-2.731-13.171c-.952-1.359-1.907-2.716-2.86-4.074 1.247 1.404 2.539 2.765 3.918 4.048-.352.005-.705.018-1.058.026zm1.997-.052c-1.415-1.888-2.832-3.773-4.249-5.66 1.781 1.873 3.562 3.743 5.342 5.616-.367.018-.73.033-1.093.044zm2.079-.084a60.385 60.385 0 0 0-3.209-4.754l4.489 4.729a30.46 30.46 0 0 0-1.28.025zm2.219-.001c-1.081-1.496-2.163-2.99-3.245-4.485l3.991 4.542a15.498 15.498 0 0 0-.746-.057zm-2.821-7.135a77.555 77.555 0 0 1 3.788 4.397c.013.017.03.024.044.038.016.676.038 1.351.064 2.027a139.394 139.394 0 0 0-3.896-6.462zm3.84-1.814a7.159 7.159 0 0 0-.152 1.323c-.038-.022-.072-.045-.113-.069a.319.319 0 0 0-.379.033c-.438-.419-.893-.82-1.377-1.192.679.002 1.356-.02 2.021-.095zm-.127 2.816c.03.554.069 1.103.08 1.637l.009.414-2.134-4.012c.738.589 1.413 1.24 2.045 1.961zm-3.241-2.749c.585 1.094 1.173 2.185 1.76 3.276a77.572 77.572 0 0 0-3.084-3.331c.44.019.882.039 1.324.055zm-2.41-.088a135.616 135.616 0 0 1 3.942 6.29c-1.849-2.099-3.698-4.198-5.541-6.303.397.003.794.002 1.191.005.136.001.273.005.408.008zM49.77 38.219c-.009-.016-.013-.034-.026-.05-1.784-2.292-3.567-4.586-5.352-6.878 2.292 2.317 4.582 4.636 6.873 6.955-.499-.009-.998-.016-1.495-.027zm17.992 30.617a36.406 36.406 0 0 0 2.14 2.895 1241.08 1241.08 0 0 1-3.47-2.994c.45.078.889.103 1.33.099zm-.915 1.509c-.245-.237-.485-.477-.726-.716l-.005-.179c.243.3.483.6.731.895zm-.699.376l2.19 2.731a3340.65 3340.65 0 0 1-2.173-1.754l-.017-.977zm1.076 3.619c-.367-.309-.734-.618-1.104-.924.008-.173.019-.342.027-.498l1.077 1.422zm-.905.983c-.132-.14-.19-.462-.21-.85.243.323.506.627.8.908-.306.001-.546-.013-.59-.058zm1.071.047a7.525 7.525 0 0 1-.94-1.099c.426.362.85.724 1.278 1.084-.111.005-.225.011-.338.015zm1.225-.063l-.073.003c-.644-.863-1.286-1.726-1.927-2.59 1.06.86 2.119 1.72 3.18 2.579-.393.004-.787.006-1.18.008zm1.913-.012l-.248.001a.268.268 0 0 0-.035-.306c-.657-.824-1.312-1.649-1.967-2.475 1.01.946 2.039 1.87 3.089 2.774-.279.003-.559.004-.839.006zm1.302-.008c.1-.104.129-.268-.006-.404a78.952 78.952 0 0 1-3.513-3.764c1.621 1.387 3.239 2.776 4.861 4.16l-1.342.008zm2.221-.013h-.075a.295.295 0 0 0-.069-.094 35.484 35.484 0 0 1-4.822-5.411l5.041 4.87c-.024.213-.048.424-.075.635zm-.416-6.781c.345-.143.516-.023.514.357.045.094.08.189.107.286a7.575 7.575 0 0 0-.75-.669c.041.011.09.014.129.026zm.694 1.67c.013.239.017.48.014.721-.465-.667-.932-1.333-1.396-2 .501.367.959.787 1.382 1.279zm-2.481-1.724c.552.785 1.106 1.569 1.66 2.352a74.465 74.465 0 0 0-2.624-2.227c.318-.046.643-.089.964-.125zm2.456 3.904c-.02.488-.053.973-.095 1.458a39.485 39.485 0 0 1-3.472-4.595 74.256 74.256 0 0 1 3.567 3.137zm-2.85-1.068l-2.583-2.49c.195-.014.392-.027.591-.039.086-.005.184-.017.278-.027a40.513 40.513 0 0 0 1.714 2.556zm11.827-12.381h-1.108a.284.284 0 0 0-.031-.337 112.835 112.835 0 0 1-4.744-6.224c2.091 2.185 4.18 4.371 6.268 6.559-.122.002-.249.002-.385.002zm1.204-.052l-4.321-5.78 5.15 5.273c-.147.305-.417.444-.829.507zM85.336 56l.089.961c.019.209.028.392.028.557a61.401 61.401 0 0 1-4.709-6.539l4.556 4.995c.011.011.025.016.036.026zm-.749-6.976c.041-.01.067-.03.103-.045l.171 1.86a16.121 16.121 0 0 0-1.203-1.63c.313-.053.623-.112.929-.185zm-1.755.304c.014.027.024.056.047.082.353.403.668.817.967 1.239a23.507 23.507 0 0 0-1.542-1.265c.176-.017.353-.035.528-.056zm2.21 3.489c.058.622.116 1.244.172 1.867-1.001-1.504-2.004-3.007-3.007-4.511a21.827 21.827 0 0 1 2.835 2.644zm-4.106-3.333l1.901 2.831-2.559-2.799c.219-.009.438-.02.658-.032zm-3.107.131c.436-.023.876-.04 1.318-.056a62.56 62.56 0 0 0 2.966 4.616l-4.456-4.549.172-.011zm-.938.059c.007.014.009.028.02.042l4.409 5.875-5.582-5.84c.386-.024.77-.051 1.153-.077zm-1.948.121a109.577 109.577 0 0 0 4.491 6.258 72.381 72.381 0 0 1-5.726-6.232c.411.001.822-.008 1.235-.026zm-3.023-.081c.339.044.682.069 1.025.085 1.296 2.424 2.891 4.625 4.602 6.747-1.863-1.908-3.517-4.006-5.152-6.142a.29.29 0 0 0-.417-.056c-.021-.211-.035-.423-.058-.634zm.104 1.154a43.075 43.075 0 0 0 3.129 4.858 67.367 67.367 0 0 1-2.607-2.886c-.115-.136-.291-.078-.372.043a71.828 71.828 0 0 0-.15-2.015zm.169 2.323a53.381 53.381 0 0 0 2.458 3.876 98.766 98.766 0 0 0-2.376-2.335c-.024-.514-.052-1.028-.082-1.541zm.122 2.403c.644.846 1.589 1.972 1.887 2.824l-.28-.246c-.449-.513-1.045-.985-1.555-1.46-.016-.372-.035-.745-.052-1.118zm.111 2.396c-.015-.299-.027-.598-.041-.896a53.29 53.29 0 0 0 1.823 1.829c-1.047.098-1.717.363-1.782-.933zm2.498.905c-.372-.632-.735-1.338-1.153-1.958.603.675 1.27 1.316 1.93 1.958h-.777zm1.665 0a54.302 54.302 0 0 1-2.563-3.646 69.421 69.421 0 0 0 3.614 3.646h-1.051zm1.868 0a43.5 43.5 0 0 1-3.572-4.472c1.339 1.594 2.762 3.11 4.35 4.472h-.778zm1.771-.001c-1.793-2.1-3.548-4.219-5.074-6.505a72.351 72.351 0 0 0 6.517 6.505h-1.443zm8.019 9.261l.453.721a264.43 264.43 0 0 1-.796-.697l.343-.024zm-3.141.159l3.022 4.236c-1.287-1.364-2.507-2.79-3.706-4.235.229.001.457.002.684-.001zm-1.811-.028c.052.003.104.003.158.005a66.75 66.75 0 0 0 1.9 3.297l-2-2.331c-.021-.324-.035-.648-.058-.971zm.145 2.439a49.211 49.211 0 0 0 1.867 3.041c-.599-.5-1.197-1-1.798-1.496-.02-.516-.042-1.031-.069-1.545zm.914 3.916a6.569 6.569 0 0 1-.813-1.323l-.011-.368c.694.585 1.39 1.169 2.086 1.754l-1.262-.063zm2.645.132c-.122-.006-.243-.013-.366-.018a50.818 50.818 0 0 1-2.142-3.32l2.895 3.376a6.854 6.854 0 0 0-.387-.038zm1.22.136a68.317 68.317 0 0 1-3.117-4.87c1.47 1.738 2.993 3.427 4.653 4.989a18.041 18.041 0 0 1-1.536-.119zm-2.3-6.619c.331-.012.662-.028.994-.047l1.711 2.801c.252.411 1.301 1.747 1.578 2.649l-4.283-5.403zm4.302 4.137l-1.672-2.772 1.46 1.292c.284.251.767-.069.547-.422l-.795-1.28c.289.094.615-.313.359-.608a7.669 7.669 0 0 0-.562-.574c.343-.024.685-.047 1.025-.068l.029 2.992c.004.365.124 1.438.158 2.375-.149-.323-.369-.637-.549-.935z"></path></g><!----></svg>